<svg class="lgi_icon" fill="#33bbee" stroke="#33bbee" stroke-width=".17" version="1.1" viewBox="0 0 47.061 41.045" xmlns="http://www.w3.org/2000/svg">
 <g aria-label="𓈗">
  <path d="m9.8557 8.4477-3.072-3.7973-2.9867 3.4987h-3.712l6.784-8.0213 2.944 3.584 2.7307-3.6267 2.816 3.584 2.6027-3.584 2.9013 3.6267 2.688-3.6267 2.688 3.6267 2.8587-3.6267 2.6027 3.6267 2.816-3.6267 2.7307 3.6267 2.944-3.584 6.784 8.0213h-3.6693l-3.0293-3.4987-3.072 3.7973-2.7733-3.7547-2.7307 3.7547-2.688-3.7547-2.7733 3.7547-2.688-3.7547-2.688 3.7547-2.7733-3.7547-2.688 3.7547-2.7733-3.7547zm-8.0213-1.1093h1.5787l3.4133-4.0107 2.9867 3.712 2.816-3.7547 2.7733 3.712 2.688-3.712 2.7733 3.712 2.688-3.712 2.688 3.712 2.7733-3.712 2.688 3.712 2.7307-3.712 2.816 3.7547 2.9867-3.712 3.4133 4.0107h1.536l-4.992-5.888-2.9867 3.584-2.688-3.584-2.8587 3.6267-2.6027-3.6267-2.816 3.6267-2.688-3.6267-2.688 3.6267-2.8587-3.584-2.6027 3.584-2.8587-3.6267-2.688 3.584-2.9867-3.584zm13.568 17.365-2.7733-3.7547-2.7733 3.712-3.072-3.7547-2.9867 3.4987h-3.712l6.784-8.0213 2.944 3.584 2.7307-3.6267 2.816 3.584 2.6027-3.584 2.9013 3.6267 2.688-3.6267 2.688 3.6267 2.8587-3.6267 2.6027 3.6267 2.816-3.6267 2.7307 3.6267 2.944-3.584 6.784 8.0213h-3.6693l-3.0293-3.4987-3.072 3.7547-2.7733-3.712-2.7307 3.7547-2.688-3.7547-2.7733 3.7547-2.688-3.7547-2.688 3.7547-2.7733-3.7547zm-13.568-1.1093h1.5787l3.4133-4.0107 2.9867 3.712 2.816-3.7547 2.7733 3.712 2.688-3.712 2.7733 3.712 2.688-3.712 2.688 3.712 2.7733-3.712 2.688 3.712 2.7307-3.712 2.816 3.7547 2.9867-3.712 3.4133 4.0107h1.536l-4.992-5.9307-2.9867 3.6267-2.688-3.584-2.8587 3.6267-2.6027-3.6267-2.816 3.6267-2.688-3.6267-2.688 3.6267-2.8587-3.584-2.6027 3.584-2.8587-3.6267-2.688 3.584-2.9867-3.6267zm13.568 17.365-2.7733-3.7547-2.7733 3.712-3.072-3.7547-2.9867 3.4987h-3.712l6.784-8.0213 2.944 3.584 2.7307-3.6267 2.816 3.584 2.6027-3.584 2.9013 3.584 2.688-3.584 2.688 3.584 2.8587-3.584 2.6027 3.584 2.816-3.584 2.7307 3.6267 2.944-3.584 6.784 8.0213h-3.6693l-3.0293-3.4987-3.072 3.7547-2.7733-3.712-2.7307 3.7547-2.688-3.7547-2.7733 3.7547-2.688-3.7547-2.688 3.7547-2.7733-3.7547zm-13.568-1.152h1.5787l3.4133-3.968 2.9867 3.712 2.816-3.7547 2.7733 3.712 2.688-3.712 2.7733 3.712 2.688-3.712 2.688 3.712 2.7733-3.712 2.688 3.712 2.7307-3.712 2.816 3.7547 2.9867-3.712 3.4133 3.968h1.536l-4.992-5.888-2.9867 3.6267-2.688-3.584-2.8587 3.6267-2.6027-3.6267-2.816 3.6267-2.688-3.6267-2.688 3.6267-2.8587-3.584-2.6027 3.584-2.8587-3.6267-2.688 3.584-2.9867-3.6267z"/>
 </g>
</svg>
