<svg id="logo_icon" version="1.1" viewBox="0 0 46.418 46.418" xmlns="http://www.w3.org/2000/svg"><g transform="translate(-105.74 130.9)" fill="none" stroke-miterlimit="10"><path transform="matrix(.53333 0 0 -.53333 106.27 -85.014)" d="m0 0h85.04m-85.04 14.173h85.04m-85.04 14.173h85.04m-85.04 14.173h85.04m-85.04 14.173h85.04m-85.04 14.173h85.04m-85.04 14.173h85.04m-85.04-85.04v85.04m14.173-85.04v85.04m14.173-85.04v85.04m14.173-85.04v85.04m14.173-85.04v85.04m14.173-85.04v85.04m14.173-85.04v85.04" stroke="#808080" stroke-linecap="square" stroke-width="1.9913"/><g stroke="#3be" stroke-linecap="round" stroke-width="3.9851"><path transform="matrix(.53333 0 0 -.53333 106.27 -85.014)" d="m1.4174 83.623 18.425-35.434"/><path transform="matrix(.53333 0 0 -.53333 106.27 -85.014)" d="m19.843 48.189 17.008 14.173"/><path transform="matrix(.53333 0 0 -.53333 106.27 -85.014)" d="m36.851 62.363 46.772-60.945"/></g></g></svg>
