<svg class="sya_icon"  version="1.1" viewBox="0 0 33.812 33.814" xml:space="preserve" xmlns="http://www.w3.org/2000/svg">
        <g transform="translate(-.094347 -.097881)" stroke-width=".5">
          <path d="m3.6974 7.0342 13.311-6.6568 13.311 6.6568 3.319 14.974-8.3149 11.654h-16.646l-8.3149-11.654z" fill="#ffc000" stroke="#ffc000"/>
          <path d="m18.741 6.1796c0.9038 0.13149 1.7749 0.36144 2.5963 0.6901l1.6108-1.627 2.0209 1.1668-0.6078 2.219c0.7066 0.54252 1.3474 1.1837 1.8899 1.8903l2.2181-0.60821 1.167 2.0218-1.6267 1.6109c0.3285 0.8218 0.5586 1.693 0.69 2.597l2.2185 0.5755v2.3339l-2.2185 0.5756c-0.1314 0.9038-0.3615 1.7749-0.69 2.597l1.6267 1.6108-1.167 2.0219-2.2181-0.6083c-0.5425 0.7068-1.1833 1.3479-1.8899 1.8905l0.6078 2.219-2.0209 1.1668-1.6108-1.6271c-0.8214 0.3286-1.6925 0.5587-2.5963 0.6901l-0.5751 2.219h-2.3334l-0.5751-2.219c-0.9038-0.1314-1.7748-0.3615-2.5963-0.6901l-1.6104 1.6271-2.0212-1.1668 0.60777-2.219c-0.70657-0.5426-1.3474-1.1837-1.8894-1.8905l-2.2185 0.6083-1.1667-2.0219 1.6268-1.6108c-0.32869-0.822-0.55893-1.6931-0.69038-2.597l-2.2185-0.5756v-2.3339l2.2185-0.5755c0.13145-0.9039 0.36169-1.7751 0.69038-2.597l-1.6268-1.6109 1.1667-2.0218 2.2185 0.60821c0.54201-0.70658 1.1828-1.3478 1.8894-1.8903l-0.60777-2.219 2.0212-1.1668 1.6104 1.627c0.8215-0.32866 1.6926-0.55861 2.5963-0.6901l0.5751-2.219h2.3334zm-7.9863 11.703c0 3.4519 2.7935 6.2461 6.2446 6.2461 3.4508 0 6.2446-2.7942 6.2446-6.2461 0-3.4514-2.7938-6.2461-6.2446-6.2461-3.4509 0-6.2446 2.7944-6.2446 6.2461z" fill="#ff0" stroke="#ff0"/>
          
        </g>
      </svg>
