<?xml version="1.0" encoding="UTF-8"?><svg version="1.1" viewBox="0 0 128 128" xml:space="preserve" xmlns="http://www.w3.org/2000/svg"><rect x="4" y="4" width="120" height="120" fill="#fff"/><g fill="none" stroke="gray" stroke-width="2"><line x1="24.7" x2="24.7" y1="4.2" y2="124"/><line x1="44.4" x2="44.4" y1="4.2" y2="124"/><line x1="64" x2="64" y1="4.2" y2="124"/><line x1="83.6" x2="83.6" y1="4.2" y2="124"/><line x1="103" x2="103" y1="4.2" y2="124"/></g><g fill="none" stroke="gray" stroke-width="2"><line x1="124" x2="4.15" y1="24.7" y2="24.7"/><line x1="124" x2="4.16" y1="44.3" y2="44.3"/><line x1="124" x2="4.17" y1="64" y2="64"/><line x1="124" x2="4.19" y1="83.7" y2="83.7"/><line x1="124" x2="4.2" y1="103" y2="103"/></g><polygon points="5.1 5.14 5.02 11.3 31.9 59.8 55.6 37.9 119 123 123 123 123 118 56.4 29 33.4 50.3 8.45 5.11" fill="blue"/><path d="m122 6v116h-116v-116h116m1.99-2h-120v120h120v-120z" fill="gray"/></svg>
