<svg width="439pt" height="317pt" viewBox="0.00 0.00 438.99 316.71" xmlns="http://www.w3.org/2000/svg" xmlns:xlink="http://www.w3.org/1999/xlink">
<g id="graph0" class="graph" transform="scale(1 1) rotate(0) translate(4 312.71)">
<polygon fill="white" stroke="none" points="-4,4 -4,-312.71 434.99,-312.71 434.99,4 -4,4"></polygon>
<!-- Irrigate -->
<g id="mfr" class="node transforms zoomable">
<title>Irrigate</title>
<g id="a_mfr"><a xlink:href="#Top.Food.Irrigate" xlink:title="0.2.2
Irrigate">
<path fill="none" stroke="#33bbee" stroke-width="2" d="M149.59,-182.81C149.59,-182.81 115.62,-182.81 115.62,-182.81 109.62,-182.81 103.62,-176.81 103.62,-170.81 103.62,-170.81 103.62,-158.81 103.62,-158.81 103.62,-152.81 109.62,-146.81 115.62,-146.81 115.62,-146.81 149.59,-146.81 149.59,-146.81 155.59,-146.81 161.59,-152.81 161.59,-158.81 161.59,-158.81 161.59,-170.81 161.59,-170.81 161.59,-176.81 155.59,-182.81 149.59,-182.81"></path>
<text text-anchor="middle" x="132.61" y="-169.01" font-family="Arial" font-size="14.00">0.2.2</text>
<text text-anchor="middle" x="132.61" y="-152.21" font-family="Arial" font-size="14.00">Irrigate</text>
</a>
</g>
<line x1="103.62000274658203" y1="-165.80999755859375" x2="161.58999633789062" y2="-165.80999755859375" stroke-dasharray="3,0" stroke="#33bbee" stroke-width="2px"></line><circle cx="104.62000274658203" cy="-181.80999755859375" r="3" stroke="#ee3377" fill="#ee3377"></circle></g>
<!-- Wheat Link -->
<g id="cty" class="node agents">
<title>Wheat Link</title>
<polygon fill="none" stroke="#009988" stroke-width="2" points="258.49,-186.07 203.62,-186.07 203.62,-150.07 258.49,-150.07 258.49,-186.07"></polygon>
<text text-anchor="middle" x="231.06" y="-172.27" font-family="Arial" font-size="14.00">Wheat</text>
<text text-anchor="middle" x="231.06" y="-155.47" font-family="Arial" font-size="14.00">Link</text>
</g>
<!-- Irrigate&#45;&gt;Wheat Link -->
<g id="edge1" class="edge">
<title>Irrigate-&gt;Wheat Link</title>
<path fill="none" stroke="#bbbbbb" stroke-width="2" d="M169.8,-166.04C178.14,-166.32 186.98,-166.61 195.27,-166.88"></path>
<polygon fill="#bbbbbb" stroke="#bbbbbb" stroke-width="2" points="164.85,-165.88 169.92,-163.79 164.93,-165.38 169.86,-165.54 169.84,-166.04 169.83,-166.54 164.89,-166.38 169.77,-168.29 164.85,-165.88"></polygon>
<polygon fill="#bbbbbb" stroke="#bbbbbb" stroke-width="2" points="200.26,-167.05 195.19,-169.13 200.18,-167.55 195.25,-167.38 195.27,-166.88 195.28,-166.38 200.22,-166.55 195.34,-164.64 200.26,-167.05"></polygon>
</g>
<!-- Water -->
<g id="k3m" class="node locations">
<title>Water</title>
<polygon fill="none" stroke="#cc3311" stroke-width="2" points="0,-52.1 0,-88.1 84.03,-88.1 84.03,-52.1 0,-52.1"></polygon>
<text text-anchor="middle" x="16.15" y="-65.9" font-family="Arial" font-size="14.00">R5</text>
<polyline fill="none" stroke="#cc3311" stroke-width="2" points="32.3,-52.1 32.3,-88.1"></polyline>
<text text-anchor="middle" x="58.17" y="-65.9" font-family="Arial" font-size="14.00">Water</text>
</g>
<!-- Irrigate&#45;&gt;Water -->
<g id="edge2" class="edge">
<title>Irrigate-&gt;Water</title>
<path fill="none" stroke="#bbbbbb" stroke-width="2" d="M109.7,-140.86C96.03,-126.57 78.74,-108.49 65.05,-94.18"></path>
<polygon fill="#bbbbbb" stroke="#bbbbbb" stroke-width="2" points="113.02,-144.34 107.94,-142.28 112.62,-144.64 109.21,-141.07 109.57,-140.72 109.93,-140.38 113.34,-143.95 111.19,-139.17 113.02,-144.34"></polygon>
<polygon fill="#bbbbbb" stroke="#bbbbbb" stroke-width="2" points="61.87,-90.86 66.95,-92.92 62.28,-90.56 65.69,-94.13 65.33,-94.47 64.97,-94.82 61.55,-91.25 63.7,-96.03 61.87,-90.86"></polygon>
</g>
<!-- Farmers -->
<g id="qmy" class="node agents">
<title>Farmers</title>
<polygon fill="none" stroke="#009988" stroke-width="2" points="199.08,-47.11 132.57,-47.11 132.57,-11.11 199.08,-11.11 199.08,-47.11"></polygon>
<text text-anchor="middle" x="165.83" y="-24.91" font-family="Arial" font-size="14.00">Farmers</text>
</g>
<!-- Irrigate&#45;&gt;Farmers -->
<g id="edge3" class="edge">
<title>Irrigate-&gt;Farmers</title>
<path fill="none" stroke="#bbbbbb" stroke-width="2" d="M138.96,-138.83C145.48,-112.2 155.46,-71.44 161.25,-47.82"></path>
<polygon fill="#bbbbbb" stroke="#bbbbbb" stroke-width="2" points="137.8,-143.57 136.81,-138.18 137.33,-143.39 138.51,-138.6 138.99,-138.72 139.48,-138.84 138.3,-143.63 141.18,-139.25 137.8,-143.57"></polygon>
</g>
<!-- Fields -->
<g id="hhc" class="node locations">
<title>Fields</title>
<polygon fill="none" stroke="#cc3311" stroke-width="2" points="127.56,-269.88 127.56,-305.88 211.6,-305.88 211.6,-269.88 127.56,-269.88"></polygon>
<text text-anchor="middle" x="143.7" y="-283.68" font-family="Arial" font-size="14.00">R2</text>
<polyline fill="none" stroke="#cc3311" stroke-width="2" points="159.85,-269.88 159.85,-305.88"></polyline>
<text text-anchor="middle" x="185.73" y="-283.68" font-family="Arial" font-size="14.00">Fields</text>
</g>
<!-- Irrigate&#45;&gt;Fields -->
<g id="edge4" class="edge">
<title>Irrigate-&gt;Fields</title>
<path fill="none" stroke="#bbbbbb" stroke-width="2" d="M138.3,-183.77C144.62,-204.79 154.84,-238.81 161.86,-262.21"></path>
<polygon fill="#bbbbbb" stroke="#bbbbbb" stroke-width="2" points="163.23,-266.77 159.64,-262.63 162.74,-266.85 161.32,-262.13 161.8,-261.98 162.27,-261.84 163.7,-266.57 163.95,-261.33 163.23,-266.77"></polygon>
</g>
<!-- Wheat Link&#45;&gt;Farmers -->
<g id="edge5" class="edge">
<title>Wheat Link-&gt;Farmers</title>
<path fill="none" stroke="#bbbbbb" stroke-width="2" d="M219.16,-142.74C207.44,-117.75 189.61,-79.77 177.84,-54.7"></path>
<polygon fill="#bbbbbb" stroke="#bbbbbb" stroke-width="2" points="221.22,-147.12 217.06,-143.55 220.74,-147.28 218.65,-142.81 219.1,-142.6 219.55,-142.38 221.65,-146.85 221.13,-141.64 221.22,-147.12"></polygon>
<polygon fill="#bbbbbb" stroke="#bbbbbb" stroke-width="2" points="175.73,-50.2 179.89,-53.77 176.21,-50.05 178.3,-54.51 177.85,-54.73 177.4,-54.94 175.3,-50.47 175.81,-55.68 175.73,-50.2"></polygon>
</g>
<!-- Farm Help -->
<g id="o8a" class="node agents">
<title>Farm Help</title>
<polygon fill="none" stroke="#009988" stroke-width="2" points="399.69,-308.71 345.69,-308.71 345.69,-272.71 399.69,-272.71 399.69,-308.71"></polygon>
<text text-anchor="middle" x="372.69" y="-294.91" font-family="Arial" font-size="14.00">Farm</text>
<text text-anchor="middle" x="372.69" y="-278.11" font-family="Arial" font-size="14.00">Help</text>
</g>
<!-- Stores -->
<g id="fn6" class="node locations">
<title>Stores</title>
<polygon fill="none" stroke="#cc3311" stroke-width="2" points="303.87,-0.5 303.87,-36.5 391.02,-36.5 391.02,-0.5 303.87,-0.5"></polygon>
<text text-anchor="middle" x="320.01" y="-14.3" font-family="Arial" font-size="14.00">R3</text>
<polyline fill="none" stroke="#cc3311" stroke-width="2" points="336.16,-0.5 336.16,-36.5"></polyline>
<text text-anchor="middle" x="363.59" y="-14.3" font-family="Arial" font-size="14.00">Stores</text>
</g>
<!-- Farm Storage -->
<g id="t92" class="node locations">
<title>Farm Storage</title>
<polygon fill="none" stroke="#cc3311" stroke-width="2" points="335.26,-119.39 335.26,-155.39 430.99,-155.39 430.99,-119.39 335.26,-119.39"></polygon>
<text text-anchor="middle" x="351.41" y="-133.19" font-family="Arial" font-size="14.00">R4</text>
<polyline fill="none" stroke="#cc3311" stroke-width="2" points="367.55,-119.39 367.55,-155.39"></polyline>
<text text-anchor="middle" x="399.27" y="-141.59" font-family="Arial" font-size="14.00">Farm</text>
<text text-anchor="middle" x="399.27" y="-124.79" font-family="Arial" font-size="14.00">Storage</text>
</g>
<!-- Plow -->
<g id="k3x" class="node transforms zoomnotable">
<title>Plow</title>
<path fill="none" stroke="#33bbee" stroke-width="2" d="M64.14,-282.3C64.14,-282.3 34.14,-282.3 34.14,-282.3 28.14,-282.3 22.14,-276.3 22.14,-270.3 22.14,-270.3 22.14,-258.3 22.14,-258.3 22.14,-252.3 28.14,-246.3 34.14,-246.3 34.14,-246.3 64.14,-246.3 64.14,-246.3 70.14,-246.3 76.14,-252.3 76.14,-258.3 76.14,-258.3 76.14,-270.3 76.14,-270.3 76.14,-276.3 70.14,-282.3 64.14,-282.3"></path>
<text text-anchor="middle" x="49.14" y="-268.5" font-family="Arial" font-size="14.00">0.2.4</text>
<text text-anchor="middle" x="49.14" y="-251.7" font-family="Arial" font-size="14.00">Plow</text>
<line x1="22.139999389648438" y1="-265.29998779296875" x2="76.13999938964844" y2="-265.29998779296875" stroke-dasharray="3,0" stroke="#33bbee" stroke-width="2px"></line></g>
<!-- Plow&#45;&gt;Farmers -->
<g id="edge7" class="edge">
<title>Plow-&gt;Farmers</title>
<path fill="none" stroke="#bbbbbb" stroke-width="2" d="M57.6,-238.61C66.23,-213.46 80.61,-174.33 96.62,-142.01 113.67,-107.61 137.93,-70.04 152.73,-48.08"></path>
<polygon fill="#bbbbbb" stroke="#bbbbbb" stroke-width="2" points="56,-243.32 55.48,-237.86 55.55,-243.1 57.14,-238.43 57.61,-238.59 58.08,-238.75 56.5,-243.42 59.74,-239.31 56,-243.32"></polygon>
</g>
<!-- Plow&#45;&gt;Fields -->
<g id="edge6" class="edge">
<title>Plow-&gt;Fields</title>
<path fill="none" stroke="#bbbbbb" stroke-width="2" d="M77.07,-269.77C89.73,-272.25 105.1,-275.26 119.64,-278.11"></path>
<polygon fill="#bbbbbb" stroke="#bbbbbb" stroke-width="2" points="124.3,-279.02 118.96,-280.27 124.14,-279.5 119.3,-278.55 119.39,-278.06 119.49,-277.57 124.33,-278.52 119.83,-275.85 124.3,-279.02"></polygon>
</g>
<!-- Harvest -->
<g id="zdq" class="node transforms zoomnotable">
<title>Harvest</title>
<path fill="none" stroke="#33bbee" stroke-width="2" d="M344.33,-225.17C344.33,-225.17 305.69,-225.17 305.69,-225.17 299.69,-225.17 293.69,-219.17 293.69,-213.17 293.69,-213.17 293.69,-201.17 293.69,-201.17 293.69,-195.17 299.69,-189.17 305.69,-189.17 305.69,-189.17 344.33,-189.17 344.33,-189.17 350.33,-189.17 356.33,-195.17 356.33,-201.17 356.33,-201.17 356.33,-213.17 356.33,-213.17 356.33,-219.17 350.33,-225.17 344.33,-225.17"></path>
<text text-anchor="middle" x="325.01" y="-211.37" font-family="Arial" font-size="14.00">0.2.5</text>
<text text-anchor="middle" x="325.01" y="-194.57" font-family="Arial" font-size="14.00">Harvest</text>
<line x1="293.69000244140625" y1="-208.1699981689453" x2="356.3299865722656" y2="-208.1699981689453" stroke-dasharray="3,0" stroke="#33bbee" stroke-width="2px"></line></g>
<!-- Harvest&#45;&gt;Wheat Link -->
<g id="edge11" class="edge">
<title>Harvest-&gt;Wheat Link</title>
<path fill="none" stroke="#bbbbbb" stroke-width="2" d="M286.14,-190.99C279.37,-188.18 272.37,-185.26 265.72,-182.5"></path>
<polygon fill="#bbbbbb" stroke="#bbbbbb" stroke-width="2" points="290.69,-192.89 285.21,-193.04 290.44,-193.32 285.88,-191.43 286.07,-190.96 286.26,-190.5 290.82,-192.4 286.94,-188.89 290.69,-192.89"></polygon>
<polygon fill="#bbbbbb" stroke="#bbbbbb" stroke-width="2" points="261.46,-180.72 266.94,-180.57 261.71,-180.29 266.27,-182.18 266.08,-182.64 265.89,-183.11 261.33,-181.21 265.21,-184.72 261.46,-180.72"></polygon>
</g>
<!-- Harvest&#45;&gt;Fields -->
<g id="edge8" class="edge">
<title>Harvest-&gt;Fields</title>
<path fill="none" stroke="#bbbbbb" stroke-width="2" d="M286.4,-227.22C261.84,-239.97 230.24,-256.38 206.1,-268.92"></path>
<polygon fill="#bbbbbb" stroke="#bbbbbb" stroke-width="2" points="290.64,-225.02 287.24,-229.32 290.82,-225.49 286.43,-227.76 286.2,-227.32 285.97,-226.88 290.35,-224.6 285.17,-225.32 290.64,-225.02"></polygon>
</g>
<!-- Harvest&#45;&gt;Farm Help -->
<g id="edge9" class="edge">
<title>Harvest-&gt;Farm Help</title>
<path fill="none" stroke="#bbbbbb" stroke-width="2" d="M339.46,-232.49C346.68,-245.15 355.27,-260.2 361.91,-271.83"></path>
<polygon fill="#bbbbbb" stroke="#bbbbbb" stroke-width="2" points="337.04,-228.24 341.47,-231.47 337.5,-228.05 339.95,-232.34 339.51,-232.58 339.08,-232.83 336.63,-228.54 337.56,-233.7 337.04,-228.24"></polygon>
</g>
<!-- Harvest&#45;&gt;Farm Storage -->
<g id="edge10" class="edge">
<title>Harvest-&gt;Farm Storage</title>
<path fill="none" stroke="#bbbbbb" stroke-width="2" d="M340.58,-188.47C347.49,-180.18 355.7,-170.32 363.05,-161.49"></path>
<polygon fill="#bbbbbb" stroke="#bbbbbb" stroke-width="2" points="365.95,-158.02 364.48,-163.3 366.29,-158.38 363.13,-162.18 362.75,-161.86 362.36,-161.54 365.52,-157.74 361.02,-160.42 365.95,-158.02"></polygon>
</g>
<!-- Distribution -->
<g id="y3e" class="node transforms zoomnotable">
<title>Distribution</title>
<path fill="none" stroke="#33bbee" stroke-width="2" d="M299.84,-103.17C299.84,-103.17 239.41,-103.17 239.41,-103.17 233.41,-103.17 227.41,-97.17 227.41,-91.17 227.41,-91.17 227.41,-79.17 227.41,-79.17 227.41,-73.17 233.41,-67.17 239.41,-67.17 239.41,-67.17 299.84,-67.17 299.84,-67.17 305.84,-67.17 311.84,-73.17 311.84,-79.17 311.84,-79.17 311.84,-91.17 311.84,-91.17 311.84,-97.17 305.84,-103.17 299.84,-103.17"></path>
<text text-anchor="middle" x="269.63" y="-89.37" font-family="Arial" font-size="14.00">0.2.6</text>
<text text-anchor="middle" x="269.63" y="-72.57" font-family="Arial" font-size="14.00">Distribution</text>
<line x1="227.41000366210938" y1="-86.16999816894531" x2="311.8399963378906" y2="-86.16999816894531" stroke-dasharray="3,0" stroke="#33bbee" stroke-width="2px"></line></g>
<!-- Distribution&#45;&gt;Wheat Link -->
<g id="edge12" class="edge">
<title>Distribution-&gt;Wheat Link</title>
<path fill="none" stroke="#bbbbbb" stroke-width="2" d="M257.77,-110.65C253.01,-120.89 247.53,-132.67 242.78,-142.88"></path>
<polygon fill="#bbbbbb" stroke="#bbbbbb" stroke-width="2" points="259.85,-106.19 259.78,-111.67 260.27,-106.46 258.19,-110.93 257.74,-110.72 257.28,-110.51 259.37,-106.04 255.7,-109.77 259.85,-106.19"></polygon>
<polygon fill="#bbbbbb" stroke="#bbbbbb" stroke-width="2" points="240.8,-147.12 240.87,-141.64 240.37,-146.86 242.46,-142.38 242.91,-142.59 243.36,-142.8 241.28,-147.28 244.95,-143.54 240.8,-147.12"></polygon>
</g>
<!-- Distribution&#45;&gt;Farmers -->
<g id="edge14" class="edge">
<title>Distribution-&gt;Farmers</title>
<path fill="none" stroke="#bbbbbb" stroke-width="2" d="M228.09,-62.74C218.73,-57.68 208.89,-52.37 199.88,-47.5"></path>
<polygon fill="#bbbbbb" stroke="#bbbbbb" stroke-width="2" points="232.34,-65.03 226.87,-64.63 232.05,-65.44 227.7,-63.1 227.94,-62.66 228.18,-62.22 232.52,-64.56 229.01,-60.68 232.34,-65.03"></polygon>
</g>
<!-- Distribution&#45;&gt;Stores -->
<g id="edge13" class="edge">
<title>Distribution-&gt;Stores</title>
<path fill="none" stroke="#bbbbbb" stroke-width="2" d="M291.72,-66.24C300.43,-58.78 310.53,-50.13 319.72,-42.26"></path>
<polygon fill="#bbbbbb" stroke="#bbbbbb" stroke-width="2" points="323.45,-39.06 321.12,-44.02 323.73,-39.48 319.98,-42.69 319.65,-42.31 319.33,-41.93 323.08,-38.72 318.19,-40.6 323.45,-39.06"></polygon>
</g>
<!-- Distribution&#45;&gt;Farm Storage -->
<g id="edge15" class="edge">
<title>Distribution-&gt;Farm Storage</title>
<path fill="none" stroke="#bbbbbb" stroke-width="2" d="M316.95,-106.94C325.34,-110.81 334.01,-114.8 342.21,-118.57"></path>
<polygon fill="#bbbbbb" stroke="#bbbbbb" stroke-width="2" points="312.82,-105.04 318.3,-105.09 313.08,-104.61 317.57,-106.68 317.36,-107.13 317.15,-107.59 312.66,-105.52 316.42,-109.18 312.82,-105.04"></polygon>
</g>
<!-- Plant -->
<g id="hg3" class="node transforms zoomable">
<title>Plant</title>
<g id="a_hg3"><a xlink:href="#Top.Food.Plant" xlink:title="0.2.3
Plant">
<path fill="none" stroke="#33bbee" stroke-width="2" d="M276.03,-302.34C276.03,-302.34 246.03,-302.34 246.03,-302.34 240.03,-302.34 234.03,-296.34 234.03,-290.34 234.03,-290.34 234.03,-278.34 234.03,-278.34 234.03,-272.34 240.03,-266.34 246.03,-266.34 246.03,-266.34 276.03,-266.34 276.03,-266.34 282.03,-266.34 288.03,-272.34 288.03,-278.34 288.03,-278.34 288.03,-290.34 288.03,-290.34 288.03,-296.34 282.03,-302.34 276.03,-302.34"></path>
<text text-anchor="middle" x="261.03" y="-288.54" font-family="Arial" font-size="14.00">0.2.3</text>
<text text-anchor="middle" x="261.03" y="-271.74" font-family="Arial" font-size="14.00">Plant</text>
</a>
</g>
<line x1="234.02999877929688" y1="-285.3399963378906" x2="288.0299987792969" y2="-285.3399963378906" stroke-dasharray="3,0" stroke="#33bbee" stroke-width="2px"></line><circle cx="235.02999877929688" cy="-301.3399963378906" r="3" stroke="#ee3377" fill="#ee3377"></circle></g>
<!-- Plant&#45;&gt;Wheat Link -->
<g id="edge16" class="edge">
<title>Plant-&gt;Wheat Link</title>
<path fill="none" stroke="#bbbbbb" stroke-width="2" d="M254.35,-258.42C249.4,-239.23 242.69,-213.19 237.74,-193.99"></path>
<polygon fill="#bbbbbb" stroke="#bbbbbb" stroke-width="2" points="255.54,-263.04 252.12,-258.76 255.04,-263.1 253.81,-258.32 254.29,-258.2 254.78,-258.07 256.01,-262.85 256.47,-257.64 255.54,-263.04"></polygon>
<polygon fill="#bbbbbb" stroke="#bbbbbb" stroke-width="2" points="236.55,-189.36 239.97,-193.64 237.05,-189.3 238.28,-194.08 237.79,-194.2 237.31,-194.33 236.08,-189.55 235.61,-194.76 236.55,-189.36"></polygon>
</g>
<!-- Plant&#45;&gt;Fields -->
<g id="edge18" class="edge">
<title>Plant-&gt;Fields</title>
<path fill="none" stroke="#bbbbbb" stroke-width="2" d="M233.1,-285.42C228.82,-285.59 224.3,-285.76 219.72,-285.94"></path>
<polygon fill="#bbbbbb" stroke="#bbbbbb" stroke-width="2" points="214.94,-286.13 219.85,-283.68 214.98,-285.62 219.91,-285.43 219.93,-285.93 219.95,-286.43 215.02,-286.62 220.02,-288.18 214.94,-286.13"></polygon>
</g>
<!-- Plant&#45;&gt;Farm Help -->
<g id="edge19" class="edge">
<title>Plant-&gt;Farm Help</title>
<path fill="none" stroke="#bbbbbb" stroke-width="2" d="M295.94,-286.33C309.21,-287.09 324.32,-287.95 337.6,-288.71"></path>
<polygon fill="#bbbbbb" stroke="#bbbbbb" stroke-width="2" points="291.35,-286.07 296.47,-284.11 291.45,-285.57 296.37,-285.85 296.35,-286.35 296.32,-286.85 291.39,-286.57 296.22,-288.6 291.35,-286.07"></polygon>
<polygon fill="#bbbbbb" stroke="#bbbbbb" stroke-width="2" points="342.34,-288.98 337.22,-290.94 342.24,-289.47 337.32,-289.19 337.34,-288.69 337.37,-288.19 342.3,-288.47 337.47,-286.45 342.34,-288.98"></polygon>
</g>
<!-- Plant&#45;&gt;Farm Storage -->
<g id="edge17" class="edge">
<title>Plant-&gt;Farm Storage</title>
<path fill="none" stroke="#bbbbbb" stroke-width="2" d="M261.66,-258.34C263.46,-236.42 269.15,-205.36 286.23,-184.37 297.02,-171.11 312.46,-161.33 327.86,-154.23"></path>
<polygon fill="#bbbbbb" stroke="#bbbbbb" stroke-width="2" points="261.33,-263.25 259.42,-258.11 260.84,-263.15 261.16,-258.22 261.66,-258.26 262.16,-258.29 261.83,-263.22 263.91,-258.41 261.33,-263.25"></polygon>
<polygon fill="#bbbbbb" stroke="#bbbbbb" stroke-width="2" points="332.21,-152.33 328.53,-156.4 332.35,-152.82 327.83,-154.79 327.63,-154.34 327.43,-153.88 331.95,-151.9 326.72,-152.27 332.21,-152.33"></polygon>
</g>
</g>
</svg>