<svg width="611pt" height="461pt" viewBox="0.00 0.00 611.44 461.13" xmlns="http://www.w3.org/2000/svg" xmlns:xlink="http://www.w3.org/1999/xlink">
<g id="graph0" class="graph" transform="scale(1 1) rotate(0) translate(4 457.13)">
<polygon fill="white" stroke="none" points="-4,4 -4,-457.13 607.44,-457.13 607.44,4 -4,4"></polygon>
<!-- Planters -->
<g id="epb" class="node agents">
<title>Planters</title>
<polygon fill="none" stroke="#009988" stroke-width="2" points="335.57,-302.98 269.81,-302.98 269.81,-266.98 335.57,-266.98 335.57,-302.98"></polygon>
<text text-anchor="middle" x="302.69" y="-280.78" font-family="Arial" font-size="14.00">Planters</text>
</g>
<!-- Cloud Block Storage Service -->
<g id="qq4" class="node datastores">
<title>Cloud Block Storage Service</title>
<polygon fill="none" stroke="#cc3311" stroke-width="2" points="7.23,-370.72 7.23,-437.92 102.96,-437.92 102.96,-370.72 7.23,-370.72"></polygon>
<text text-anchor="middle" x="23.38" y="-400.12" font-family="Arial" font-size="14.00">R2</text>
<polyline fill="none" stroke="#cc3311" stroke-width="2" points="39.53,-370.72 39.53,-437.92"></polyline>
<text text-anchor="middle" x="71.25" y="-425.32" font-family="Arial" font-size="14.00">Cloud</text>
<text text-anchor="middle" x="71.25" y="-408.52" font-family="Arial" font-size="14.00">Block</text>
<text text-anchor="middle" x="71.25" y="-391.72" font-family="Arial" font-size="14.00">Storage</text>
<text text-anchor="middle" x="71.25" y="-374.92" font-family="Arial" font-size="14.00">Service</text>
</g>
<!-- Inventory Queen Cloud DB -->
<g id="y1p" class="node datastores">
<title>Inventory Queen Cloud DB</title>
<polygon fill="none" stroke="#cc3311" stroke-width="2" points="4.11,-5.05 4.11,-72.25 108.39,-72.25 108.39,-5.05 4.11,-5.05"></polygon>
<text text-anchor="middle" x="20.26" y="-34.45" font-family="Arial" font-size="14.00">R3</text>
<polyline fill="none" stroke="#cc3311" stroke-width="2" points="36.41,-5.05 36.41,-72.25"></polyline>
<text text-anchor="middle" x="72.4" y="-59.65" font-family="Arial" font-size="14.00">Inventory</text>
<text text-anchor="middle" x="72.4" y="-42.85" font-family="Arial" font-size="14.00">Queen</text>
<text text-anchor="middle" x="72.4" y="-26.05" font-family="Arial" font-size="14.00">Cloud</text>
<text text-anchor="middle" x="72.4" y="-9.25" font-family="Arial" font-size="14.00">DB</text>
</g>
<!-- Seeder AI -->
<g id="y2d" class="node processes zoomnotable">
<title>Seeder AI</title>
<path fill="none" stroke="#33bbee" stroke-width="2" d="M209.31,-371.06C209.31,-371.06 173.77,-371.06 173.77,-371.06 167.77,-371.06 161.77,-365.06 161.77,-359.06 161.77,-359.06 161.77,-332.66 161.77,-332.66 161.77,-326.66 167.77,-320.66 173.77,-320.66 173.77,-320.66 209.31,-320.66 209.31,-320.66 215.31,-320.66 221.31,-326.66 221.31,-332.66 221.31,-332.66 221.31,-359.06 221.31,-359.06 221.31,-365.06 215.31,-371.06 209.31,-371.06"></path>
<text text-anchor="middle" x="191.54" y="-358.46" font-family="Arial" font-size="14.00">0.2.3.3</text>
<text text-anchor="middle" x="191.54" y="-341.66" font-family="Arial" font-size="14.00">Seeder</text>
<text text-anchor="middle" x="191.54" y="-324.86" font-family="Arial" font-size="14.00">AI</text>
<line x1="161.77000427246094" y1="-354.05999755859375" x2="221.30999755859375" y2="-354.05999755859375" stroke-dasharray="3,3" stroke="#33bbee" stroke-width="2px"></line></g>
<!-- Seeder AI&#45;&gt;Planters -->
<g id="edge2" class="edge">
<title>Seeder AI-&gt;Planters</title>
<path fill="none" stroke="#bbbbbb" stroke-width="2" d="M228.49,-325.62C239.42,-319.63 251.44,-313.05 262.57,-306.95"></path>
<polygon fill="#bbbbbb" stroke="#bbbbbb" stroke-width="2" points="224.34,-327.89 227.65,-323.51 224.16,-327.42 228.49,-325.05 228.73,-325.49 228.97,-325.93 224.64,-328.3 229.81,-327.46 224.34,-327.89"></polygon>
<polygon fill="#bbbbbb" stroke="#bbbbbb" stroke-width="2" points="266.86,-304.6 263.56,-308.98 267.05,-305.07 262.72,-307.44 262.48,-307 262.24,-306.56 266.57,-304.19 261.4,-305.03 266.86,-304.6"></polygon>
</g>
<!-- Seeder AI&#45;&gt;Cloud Block Storage Service -->
<g id="edge1" class="edge">
<title>Seeder AI-&gt;Cloud Block Storage Service</title>
<path fill="none" stroke="#bbbbbb" stroke-width="2" d="M154.42,-361.76C140.9,-367.56 125.31,-374.24 110.54,-380.56"></path>
<polygon fill="#bbbbbb" stroke="#bbbbbb" stroke-width="2" points="158.68,-359.94 154.97,-363.97 158.82,-360.42 154.28,-362.37 154.08,-361.91 153.89,-361.45 158.43,-359.5 153.2,-359.84 158.68,-359.94"></polygon>
<polygon fill="#bbbbbb" stroke="#bbbbbb" stroke-width="2" points="106.07,-382.48 109.77,-378.44 105.93,-382 110.46,-380.05 110.66,-380.51 110.86,-380.97 106.32,-382.92 111.55,-382.58 106.07,-382.48"></polygon>
</g>
<!-- Farmers -->
<g id="fll" class="node agents">
<title>Farmers</title>
<polygon fill="none" stroke="#009988" stroke-width="2" points="66.51,-234.61 0,-234.61 0,-198.61 66.51,-198.61 66.51,-234.61"></polygon>
<text text-anchor="middle" x="33.26" y="-212.41" font-family="Arial" font-size="14.00">Farmers</text>
</g>
<!-- Seeder AI&#45;&gt;Farmers -->
<g id="edge3" class="edge">
<title>Seeder AI-&gt;Farmers</title>
<path fill="none" stroke="#bbbbbb" stroke-width="2" d="M155.5,-316.43C127.25,-293.36 88.46,-261.69 62.21,-240.26"></path>
<polygon fill="#bbbbbb" stroke="#bbbbbb" stroke-width="2" points="159.13,-319.4 153.84,-317.98 158.77,-319.74 154.94,-316.62 155.26,-316.23 155.58,-315.85 159.4,-318.97 156.68,-314.49 159.13,-319.4"></polygon>
<polygon fill="#bbbbbb" stroke="#bbbbbb" stroke-width="2" points="58.37,-237.12 63.67,-238.54 58.74,-236.77 62.56,-239.89 62.24,-240.28 61.93,-240.67 58.1,-237.55 60.82,-242.02 58.37,-237.12"></polygon>
</g>
<!-- Wheat Link -->
<g id="d2v" class="node processes zoomnotable">
<title>Wheat Link</title>
<path fill="none" stroke="#33bbee" stroke-width="2" d="M172.33,-272.5C172.33,-272.5 139.11,-272.5 139.11,-272.5 133.11,-272.5 127.11,-266.5 127.11,-260.5 127.11,-260.5 127.11,-234.1 127.11,-234.1 127.11,-228.1 133.11,-222.1 139.11,-222.1 139.11,-222.1 172.33,-222.1 172.33,-222.1 178.33,-222.1 184.33,-228.1 184.33,-234.1 184.33,-234.1 184.33,-260.5 184.33,-260.5 184.33,-266.5 178.33,-272.5 172.33,-272.5"></path>
<text text-anchor="middle" x="155.72" y="-259.9" font-family="Arial" font-size="14.00">0.2.3.4</text>
<text text-anchor="middle" x="155.72" y="-243.1" font-family="Arial" font-size="14.00">Wheat</text>
<text text-anchor="middle" x="155.72" y="-226.3" font-family="Arial" font-size="14.00">Link</text>
<line x1="127.11000061035156" y1="-255.5" x2="184.3300018310547" y2="-255.5" stroke-dasharray="3,3" stroke="#33bbee" stroke-width="2px"></line></g>
<!-- Wheat Link&#45;&gt;Cloud Block Storage Service -->
<g id="edge4" class="edge">
<title>Wheat Link-&gt;Cloud Block Storage Service</title>
<path fill="none" stroke="#bbbbbb" stroke-width="2" d="M135.19,-279.34C119.58,-303.7 97.99,-337.39 81.16,-363.65"></path>
<polygon fill="#bbbbbb" stroke="#bbbbbb" stroke-width="2" points="137.79,-275.28 136.99,-280.7 138.18,-275.6 135.51,-279.76 135.09,-279.49 134.67,-279.22 137.33,-275.06 133.2,-278.28 137.79,-275.28"></polygon>
<polygon fill="#bbbbbb" stroke="#bbbbbb" stroke-width="2" points="78.52,-367.76 79.33,-362.34 78.14,-367.44 80.8,-363.28 81.22,-363.55 81.64,-363.82 78.98,-367.98 83.12,-364.77 78.52,-367.76"></polygon>
</g>
<!-- Wheat Link&#45;&gt;Farmers -->
<g id="edge5" class="edge">
<title>Wheat Link-&gt;Farmers</title>
<path fill="none" stroke="#bbbbbb" stroke-width="2" d="M119.48,-238.22C105.24,-234.65 88.82,-230.54 74.16,-226.86"></path>
<polygon fill="#bbbbbb" stroke="#bbbbbb" stroke-width="2" points="124.02,-239.36 118.63,-240.32 123.84,-239.83 119.05,-238.63 119.17,-238.14 119.29,-237.66 124.08,-238.86 119.72,-235.96 124.02,-239.36"></polygon>
<polygon fill="#bbbbbb" stroke="#bbbbbb" stroke-width="2" points="69.48,-225.69 74.88,-224.72 69.66,-225.22 74.45,-226.42 74.33,-226.9 74.21,-227.39 69.42,-226.19 73.78,-229.09 69.48,-225.69"></polygon>
</g>
<!-- Inventory Queen Cloud -->
<g id="xfj" class="node processes zoomnotable">
<title>Inventory Queen Cloud</title>
<path fill="none" stroke="#33bbee" stroke-width="2" d="M194.88,-132.95C194.88,-132.95 146.9,-132.95 146.9,-132.95 140.9,-132.95 134.9,-126.95 134.9,-120.95 134.9,-120.95 134.9,-77.75 134.9,-77.75 134.9,-71.75 140.9,-65.75 146.9,-65.75 146.9,-65.75 194.88,-65.75 194.88,-65.75 200.88,-65.75 206.88,-71.75 206.88,-77.75 206.88,-77.75 206.88,-120.95 206.88,-120.95 206.88,-126.95 200.88,-132.95 194.88,-132.95"></path>
<text text-anchor="middle" x="170.89" y="-120.35" font-family="Arial" font-size="14.00">0.2.3.5</text>
<text text-anchor="middle" x="170.89" y="-103.55" font-family="Arial" font-size="14.00">Inventory</text>
<text text-anchor="middle" x="170.89" y="-86.75" font-family="Arial" font-size="14.00">Queen</text>
<text text-anchor="middle" x="170.89" y="-69.95" font-family="Arial" font-size="14.00">Cloud</text>
<line x1="134.89999389648438" y1="-115.94999694824219" x2="206.8800048828125" y2="-115.94999694824219" stroke-dasharray="3,3" stroke="#33bbee" stroke-width="2px"></line></g>
<!-- Inventory Queen Cloud&#45;&gt;Planters -->
<g id="edge12" class="edge">
<title>Inventory Queen Cloud-&gt;Planters</title>
<path fill="none" stroke="#bbbbbb" stroke-width="2" d="M192.97,-139.88C204.25,-159.62 218.65,-183.41 233.19,-203.67 247.69,-223.86 266.03,-245.17 280.23,-260.9"></path>
<polygon fill="#bbbbbb" stroke="#bbbbbb" stroke-width="2" points="190.62,-135.74 195.04,-138.98 191.08,-135.55 193.52,-139.85 193.09,-140.09 192.65,-140.34 190.21,-136.04 191.13,-141.2 190.62,-135.74"></polygon>
<polygon fill="#bbbbbb" stroke="#bbbbbb" stroke-width="2" points="283.24,-264.21 278.21,-262.02 282.82,-264.5 279.5,-260.85 279.87,-260.51 280.24,-260.17 283.56,-263.83 281.54,-259 283.24,-264.21"></polygon>
</g>
<!-- Inventory Queen Cloud&#45;&gt;Inventory Queen Cloud DB -->
<g id="edge10" class="edge">
<title>Inventory Queen Cloud-&gt;Inventory Queen Cloud DB</title>
<path fill="none" stroke="#bbbbbb" stroke-width="2" d="M127.62,-76.44C123.7,-74.37 119.7,-72.25 115.68,-70.12"></path>
<polygon fill="#bbbbbb" stroke="#bbbbbb" stroke-width="2" points="131.83,-78.67 126.36,-78.32 131.54,-79.09 127.18,-76.77 127.41,-76.33 127.65,-75.89 132.01,-78.2 128.47,-74.34 131.83,-78.67"></polygon>
<polygon fill="#bbbbbb" stroke="#bbbbbb" stroke-width="2" points="111.52,-67.92 116.99,-68.27 111.81,-67.5 116.17,-69.81 115.94,-70.26 115.7,-70.7 111.34,-68.39 114.88,-72.24 111.52,-67.92"></polygon>
</g>
<!-- Inventory Queen Cloud&#45;&gt;Farmers -->
<g id="edge11" class="edge">
<title>Inventory Queen Cloud-&gt;Farmers</title>
<path fill="none" stroke="#bbbbbb" stroke-width="2" d="M128.6,-135.39C106.42,-154.28 79.9,-176.87 60.47,-193.43"></path>
<polygon fill="#bbbbbb" stroke="#bbbbbb" stroke-width="2" points="132.15,-132.36 129.8,-137.31 132.43,-132.78 128.67,-135.98 128.34,-135.6 128.02,-135.22 131.78,-132.02 126.89,-133.89 132.15,-132.36"></polygon>
<polygon fill="#bbbbbb" stroke="#bbbbbb" stroke-width="2" points="57.04,-196.35 59.38,-191.39 56.76,-195.93 60.52,-192.73 60.84,-193.11 61.17,-193.49 57.41,-196.69 62.3,-194.82 57.04,-196.35"></polygon>
</g>
<!-- WL Plant -->
<g id="k87" class="node processes zoomnotable">
<title>WL Plant</title>
<path fill="none" stroke="#33bbee" stroke-width="2" d="M285.33,-197.43C285.33,-197.43 252.11,-197.43 252.11,-197.43 246.11,-197.43 240.11,-191.43 240.11,-185.43 240.11,-185.43 240.11,-159.03 240.11,-159.03 240.11,-153.03 246.11,-147.03 252.11,-147.03 252.11,-147.03 285.33,-147.03 285.33,-147.03 291.33,-147.03 297.33,-153.03 297.33,-159.03 297.33,-159.03 297.33,-185.43 297.33,-185.43 297.33,-191.43 291.33,-197.43 285.33,-197.43"></path>
<text text-anchor="middle" x="268.72" y="-184.83" font-family="Arial" font-size="14.00">0.2.3.6</text>
<text text-anchor="middle" x="268.72" y="-168.03" font-family="Arial" font-size="14.00">WL</text>
<text text-anchor="middle" x="268.72" y="-151.23" font-family="Arial" font-size="14.00">Plant</text>
<line x1="240.11000061035156" y1="-180.42999267578125" x2="297.3299865722656" y2="-180.42999267578125" stroke-dasharray="3,3" stroke="#33bbee" stroke-width="2px"></line></g>
<!-- WL Plant&#45;&gt;Planters -->
<g id="edge13" class="edge">
<title>WL Plant-&gt;Planters</title>
<path fill="none" stroke="#bbbbbb" stroke-width="2" d="M278.72,-205.42C283.88,-222.54 290.07,-243.11 294.88,-259.04"></path>
<polygon fill="#bbbbbb" stroke="#bbbbbb" stroke-width="2" points="277.3,-200.71 280.9,-204.85 277.8,-200.63 279.22,-205.35 278.74,-205.5 278.26,-205.64 276.84,-200.92 276.59,-206.15 277.3,-200.71"></polygon>
<polygon fill="#bbbbbb" stroke="#bbbbbb" stroke-width="2" points="296.27,-263.68 292.67,-259.54 295.77,-263.76 294.35,-259.03 294.83,-258.89 295.31,-258.74 296.73,-263.47 296.98,-258.24 296.27,-263.68"></polygon>
</g>
<!-- WL Plant&#45;&gt;Wheat Link -->
<g id="edge16" class="edge">
<title>WL Plant-&gt;Wheat Link</title>
<path fill="none" stroke="#bbbbbb" stroke-width="2" d="M233.28,-195.77C219.81,-204.72 204.47,-214.91 191.01,-223.86"></path>
<polygon fill="#bbbbbb" stroke="#bbbbbb" stroke-width="2" points="237.29,-193.1 234.38,-197.74 237.52,-193.56 233.41,-196.29 233.13,-195.87 232.85,-195.45 236.97,-192.72 231.89,-194 237.29,-193.1"></polygon>
<polygon fill="#bbbbbb" stroke="#bbbbbb" stroke-width="2" points="187,-226.52 189.92,-221.88 186.77,-226.07 190.88,-223.34 191.16,-223.75 191.44,-224.17 187.33,-226.9 192.41,-225.63 187,-226.52"></polygon>
</g>
<!-- Planting Lead -->
<g id="owj" class="node agents">
<title>Planting Lead</title>
<polygon fill="none" stroke="#009988" stroke-width="2" points="324.97,-38.71 259.98,-38.71 259.98,-2.71 324.97,-2.71 324.97,-38.71"></polygon>
<text text-anchor="middle" x="292.47" y="-24.91" font-family="Arial" font-size="14.00">Planting</text>
<text text-anchor="middle" x="292.47" y="-8.11" font-family="Arial" font-size="14.00">Lead</text>
</g>
<!-- WL Plant&#45;&gt;Planting Lead -->
<g id="edge15" class="edge">
<title>WL Plant-&gt;Planting Lead</title>
<path fill="none" stroke="#bbbbbb" stroke-width="2" d="M273.91,-139.1C278.28,-111.23 284.44,-71.94 288.44,-46.4"></path>
<polygon fill="#bbbbbb" stroke="#bbbbbb" stroke-width="2" points="273.18,-143.77 271.73,-138.48 272.7,-143.63 273.46,-138.76 273.95,-138.83 274.45,-138.91 273.68,-143.79 276.18,-139.18 273.18,-143.77"></polygon>
<polygon fill="#bbbbbb" stroke="#bbbbbb" stroke-width="2" points="289.19,-41.67 290.63,-46.96 289.67,-41.81 288.91,-46.69 288.41,-46.61 287.92,-46.53 288.68,-41.66 286.19,-46.26 289.19,-41.67"></polygon>
</g>
<!-- IP Text -->
<g id="vtg" class="node processes zoomnotable">
<title>IP Text</title>
<path fill="none" stroke="#33bbee" stroke-width="2" d="M407.04,-147.66C407.04,-147.66 373.83,-147.66 373.83,-147.66 367.83,-147.66 361.83,-141.66 361.83,-135.66 361.83,-135.66 361.83,-109.26 361.83,-109.26 361.83,-103.26 367.83,-97.26 373.83,-97.26 373.83,-97.26 407.04,-97.26 407.04,-97.26 413.04,-97.26 419.04,-103.26 419.04,-109.26 419.04,-109.26 419.04,-135.66 419.04,-135.66 419.04,-141.66 413.04,-147.66 407.04,-147.66"></path>
<text text-anchor="middle" x="390.43" y="-135.06" font-family="Arial" font-size="14.00">0.2.3.8</text>
<text text-anchor="middle" x="390.43" y="-118.26" font-family="Arial" font-size="14.00">IP</text>
<text text-anchor="middle" x="390.43" y="-101.46" font-family="Arial" font-size="14.00">Text</text>
<line x1="361.8299865722656" y1="-130.66000366210938" x2="419.0400085449219" y2="-130.66000366210938" stroke-dasharray="3,3" stroke="#33bbee" stroke-width="2px"></line></g>
<!-- WL Plant&#45;&gt;IP Text -->
<g id="edge14" class="edge">
<title>WL Plant-&gt;IP Text</title>
<path fill="none" stroke="#bbbbbb" stroke-width="2" d="M304.65,-157.54C320.43,-151.08 338.91,-143.53 354.67,-137.08"></path>
<polygon fill="#bbbbbb" stroke="#bbbbbb" stroke-width="2" points="300.44,-159.26 304.21,-155.28 300.31,-158.77 304.88,-156.9 305.07,-157.37 305.26,-157.83 300.69,-159.7 305.92,-159.45 300.44,-159.26"></polygon>
<polygon fill="#bbbbbb" stroke="#bbbbbb" stroke-width="2" points="358.99,-135.32 355.21,-139.29 359.12,-135.81 354.55,-137.67 354.36,-137.21 354.17,-136.75 358.74,-134.88 353.51,-135.13 358.99,-135.32"></polygon>
</g>
<!-- SMS Text -->
<g id="cbm" class="node processes zoomnotable">
<title>SMS Text</title>
<path fill="none" stroke="#33bbee" stroke-width="2" d="M535.71,-50.4C535.71,-50.4 502.5,-50.4 502.5,-50.4 496.5,-50.4 490.5,-44.4 490.5,-38.4 490.5,-38.4 490.5,-12 490.5,-12 490.5,-6 496.5,0 502.5,0 502.5,0 535.71,0 535.71,0 541.71,0 547.71,-6 547.71,-12 547.71,-12 547.71,-38.4 547.71,-38.4 547.71,-44.4 541.71,-50.4 535.71,-50.4"></path>
<text text-anchor="middle" x="519.11" y="-37.8" font-family="Arial" font-size="14.00">0.2.3.7</text>
<text text-anchor="middle" x="519.11" y="-21" font-family="Arial" font-size="14.00">SMS</text>
<text text-anchor="middle" x="519.11" y="-4.2" font-family="Arial" font-size="14.00">Text</text>
<line x1="490.5" y1="-33.400001525878906" x2="547.7100219726562" y2="-33.400001525878906" stroke-dasharray="3,3" stroke="#33bbee" stroke-width="2px"></line></g>
<!-- SMS Text&#45;&gt;Planters -->
<g id="edge6" class="edge">
<title>SMS Text-&gt;Planters</title>
<path fill="none" stroke="#bbbbbb" stroke-width="2" d="M497.86,-56.89C479.65,-83.47 452.26,-122.08 425.96,-153.9 393.64,-193.02 352.7,-235.27 327.09,-260.93"></path>
<polygon fill="#bbbbbb" stroke="#bbbbbb" stroke-width="2" points="500.46,-53.09 499.5,-58.49 500.83,-53.42 498.05,-57.5 497.64,-57.22 497.22,-56.93 500.01,-52.86 495.78,-55.95 500.46,-53.09"></polygon>
<polygon fill="#bbbbbb" stroke="#bbbbbb" stroke-width="2" points="323.6,-264.42 325.54,-259.3 323.29,-264.02 326.78,-260.53 327.13,-260.89 327.49,-261.24 323.99,-264.73 328.72,-262.48 323.6,-264.42"></polygon>
</g>
<!-- SMS Text&#45;&gt;Planting Lead -->
<g id="edge7" class="edge">
<title>SMS Text-&gt;Planting Lead</title>
<path fill="none" stroke="#bbbbbb" stroke-width="2" d="M482.73,-24.48C441.93,-23.67 375.9,-22.36 333.34,-21.52"></path>
<polygon fill="#bbbbbb" stroke="#bbbbbb" stroke-width="2" points="487.5,-24.57 482.46,-26.72 487.43,-25.07 482.5,-24.97 482.51,-24.47 482.52,-23.97 487.45,-24.07 482.55,-22.22 487.5,-24.57"></polygon>
<polygon fill="#bbbbbb" stroke="#bbbbbb" stroke-width="2" points="328.38,-21.42 333.42,-19.27 328.45,-20.92 333.39,-21.02 333.38,-21.52 333.37,-22.02 328.43,-21.92 333.33,-23.77 328.38,-21.42"></polygon>
</g>
<!-- IP Text&#45;&gt;Planters -->
<g id="edge9" class="edge">
<title>IP Text-&gt;Planters</title>
<path fill="none" stroke="#bbbbbb" stroke-width="2" d="M372.87,-154.98C356.24,-185.79 331.61,-231.41 316.39,-259.61"></path>
<polygon fill="#bbbbbb" stroke="#bbbbbb" stroke-width="2" points="375.18,-150.72 374.78,-156.19 375.59,-151.01 373.24,-155.35 372.8,-155.12 372.36,-154.88 374.71,-150.53 370.82,-154.05 375.18,-150.72"></polygon>
<polygon fill="#bbbbbb" stroke="#bbbbbb" stroke-width="2" points="314.07,-263.89 314.47,-258.43 313.66,-263.6 316.01,-259.26 316.45,-259.49 316.89,-259.73 314.54,-264.08 318.43,-260.56 314.07,-263.89"></polygon>
</g>
<!-- IP Text&#45;&gt;Planting Lead -->
<g id="edge8" class="edge">
<title>IP Text-&gt;Planting Lead</title>
<path fill="none" stroke="#bbbbbb" stroke-width="2" d="M360.52,-91.39C346.13,-76.44 329.13,-58.79 315.73,-44.87"></path>
<polygon fill="#bbbbbb" stroke="#bbbbbb" stroke-width="2" points="363.77,-94.77 358.68,-92.72 363.37,-95.07 359.94,-91.51 360.3,-91.16 360.66,-90.82 364.09,-94.37 361.92,-89.6 363.77,-94.77"></polygon>
<polygon fill="#bbbbbb" stroke="#bbbbbb" stroke-width="2" points="312.29,-41.29 317.38,-43.33 312.69,-40.99 316.11,-44.54 315.75,-44.89 315.39,-45.24 311.97,-41.68 314.13,-46.45 312.29,-41.29"></polygon>
</g>
<!-- Field Cameron -->
<g id="krk" class="node locations">
<title>Field Cameron</title>
<polygon fill="none" stroke="#cc3311" stroke-width="2" points="196.89,-416.63 196.89,-452.63 301.17,-452.63 301.17,-416.63 196.89,-416.63"></polygon>
<text text-anchor="middle" x="213.04" y="-430.43" font-family="Arial" font-size="14.00">R4</text>
<polyline fill="none" stroke="#cc3311" stroke-width="2" points="229.19,-416.63 229.19,-452.63"></polyline>
<text text-anchor="middle" x="265.18" y="-438.83" font-family="Arial" font-size="14.00">Field</text>
<text text-anchor="middle" x="265.18" y="-422.03" font-family="Arial" font-size="14.00">Cameron</text>
</g>
<!-- Farm Storage -->
<g id="xc1" class="node locations">
<title>Farm Storage</title>
<polygon fill="none" stroke="#cc3311" stroke-width="2" points="507.71,-265.82 507.71,-301.82 603.44,-301.82 603.44,-265.82 507.71,-265.82"></polygon>
<text text-anchor="middle" x="523.86" y="-279.62" font-family="Arial" font-size="14.00">R5</text>
<polyline fill="none" stroke="#cc3311" stroke-width="2" points="540.01,-265.82 540.01,-301.82"></polyline>
<text text-anchor="middle" x="571.72" y="-288.02" font-family="Arial" font-size="14.00">Farm</text>
<text text-anchor="middle" x="571.72" y="-271.22" font-family="Arial" font-size="14.00">Storage</text>
</g>
<!-- Field Jane -->
<g id="aws" class="node locations">
<title>Field Jane</title>
<polygon fill="none" stroke="#cc3311" stroke-width="2" points="505.37,-400.73 505.37,-436.73 582.42,-436.73 582.42,-400.73 505.37,-400.73"></polygon>
<text text-anchor="middle" x="521.51" y="-414.53" font-family="Arial" font-size="14.00">R6</text>
<polyline fill="none" stroke="#cc3311" stroke-width="2" points="537.66,-400.73 537.66,-436.73"></polyline>
<text text-anchor="middle" x="560.04" y="-422.93" font-family="Arial" font-size="14.00">Field</text>
<text text-anchor="middle" x="560.04" y="-406.13" font-family="Arial" font-size="14.00">Jane</text>
</g>
<!-- Field Sally -->
<g id="u9u" class="node locations">
<title>Field Sally</title>
<polygon fill="none" stroke="#cc3311" stroke-width="2" points="352.57,-393.43 352.57,-429.43 429.61,-429.43 429.61,-393.43 352.57,-393.43"></polygon>
<text text-anchor="middle" x="368.72" y="-407.23" font-family="Arial" font-size="14.00">R7</text>
<polyline fill="none" stroke="#cc3311" stroke-width="2" points="384.87,-393.43 384.87,-429.43"></polyline>
<text text-anchor="middle" x="407.24" y="-415.63" font-family="Arial" font-size="14.00">Field</text>
<text text-anchor="middle" x="407.24" y="-398.83" font-family="Arial" font-size="14.00">Sally</text>
</g>
<!-- Field Bob -->
<g id="cvb" class="node locations">
<title>Field Bob</title>
<polygon fill="none" stroke="#cc3311" stroke-width="2" points="511.06,-137.86 511.06,-173.86 588.1,-173.86 588.1,-137.86 511.06,-137.86"></polygon>
<text text-anchor="middle" x="527.21" y="-151.66" font-family="Arial" font-size="14.00">R8</text>
<polyline fill="none" stroke="#cc3311" stroke-width="2" points="543.36,-137.86 543.36,-173.86"></polyline>
<text text-anchor="middle" x="565.73" y="-160.06" font-family="Arial" font-size="14.00">Field</text>
<text text-anchor="middle" x="565.73" y="-143.26" font-family="Arial" font-size="14.00">Bob</text>
</g>
<!-- Sow -->
<g id="f1k" class="node transforms zoomnotable">
<title>Sow</title>
<path fill="none" stroke="#33bbee" stroke-width="2" d="M434.53,-279.17C434.53,-279.17 401.32,-279.17 401.32,-279.17 395.32,-279.17 389.32,-273.17 389.32,-267.17 389.32,-267.17 389.32,-255.17 389.32,-255.17 389.32,-249.17 395.32,-243.17 401.32,-243.17 401.32,-243.17 434.53,-243.17 434.53,-243.17 440.53,-243.17 446.53,-249.17 446.53,-255.17 446.53,-255.17 446.53,-267.17 446.53,-267.17 446.53,-273.17 440.53,-279.17 434.53,-279.17"></path>
<text text-anchor="middle" x="417.93" y="-265.37" font-family="Arial" font-size="14.00">0.2.3.9</text>
<text text-anchor="middle" x="417.93" y="-248.57" font-family="Arial" font-size="14.00">Sow</text>
<line x1="389.32000732421875" y1="-262.1700134277344" x2="446.5299987792969" y2="-262.1700134277344" stroke-dasharray="3,0" stroke="#33bbee" stroke-width="2px"></line></g>
<!-- Sow&#45;&gt;Planters -->
<g id="edge18" class="edge">
<title>Sow-&gt;Planters</title>
<path fill="none" stroke="#bbbbbb" stroke-width="2" d="M381.65,-268.67C369.58,-271.16 356.05,-273.95 343.65,-276.51"></path>
<polygon fill="#bbbbbb" stroke="#bbbbbb" stroke-width="2" points="386.16,-267.73 381.72,-270.95 386.2,-268.23 381.37,-269.23 381.27,-268.74 381.17,-268.25 386,-267.26 380.81,-266.54 386.16,-267.73"></polygon>
<polygon fill="#bbbbbb" stroke="#bbbbbb" stroke-width="2" points="338.89,-277.5 343.33,-274.28 338.85,-277 343.69,-276 343.79,-276.49 343.89,-276.98 339.05,-277.97 344.24,-278.69 338.89,-277.5"></polygon>
</g>
<!-- Sow&#45;&gt;Field Cameron -->
<g id="edge21" class="edge">
<title>Sow-&gt;Field Cameron</title>
<path fill="none" stroke="#bbbbbb" stroke-width="2" d="M399.53,-280.06C368.57,-311.87 306.1,-376.02 272.19,-410.84"></path>
<polygon fill="#bbbbbb" stroke="#bbbbbb" stroke-width="2" points="269.1,-414.01 270.98,-408.86 268.79,-413.62 272.23,-410.08 272.59,-410.43 272.95,-410.78 269.51,-414.32 274.21,-412 269.1,-414.01"></polygon>
</g>
<!-- Sow&#45;&gt;Farm Storage -->
<g id="edge17" class="edge">
<title>Sow-&gt;Farm Storage</title>
<path fill="none" stroke="#bbbbbb" stroke-width="2" d="M454.6,-267.2C468.5,-269.49 484.67,-272.15 499.93,-274.67"></path>
<polygon fill="#bbbbbb" stroke="#bbbbbb" stroke-width="2" points="449.86,-266.43 455.16,-265.02 450,-265.94 454.88,-266.74 454.79,-267.24 454.71,-267.73 449.84,-266.93 454.43,-269.46 449.86,-266.43"></polygon>
<polygon fill="#bbbbbb" stroke="#bbbbbb" stroke-width="2" points="504.47,-275.41 499.17,-276.82 504.33,-275.89 499.45,-275.09 499.54,-274.6 499.62,-274.11 504.49,-274.91 499.9,-272.38 504.47,-275.41"></polygon>
</g>
<!-- Sow&#45;&gt;Field Jane -->
<g id="edge22" class="edge">
<title>Sow-&gt;Field Jane</title>
<path fill="none" stroke="#bbbbbb" stroke-width="2" d="M432.87,-279.86C455.69,-308.41 499.24,-362.87 524.48,-394.45"></path>
<polygon fill="#bbbbbb" stroke="#bbbbbb" stroke-width="2" points="527.45,-398.16 522.57,-395.66 527.02,-398.42 523.93,-394.57 524.32,-394.25 524.71,-393.94 527.8,-397.8 526.08,-392.85 527.45,-398.16"></polygon>
</g>
<!-- Sow&#45;&gt;Field Sally -->
<g id="edge19" class="edge">
<title>Sow-&gt;Field Sally</title>
<path fill="none" stroke="#bbbbbb" stroke-width="2" d="M414.58,-279.9C409.84,-306.44 401.15,-355.12 395.77,-385.23"></path>
<polygon fill="#bbbbbb" stroke="#bbbbbb" stroke-width="2" points="394.91,-390.07 393.57,-384.75 394.42,-389.92 395.29,-385.06 395.79,-385.14 396.28,-385.23 395.41,-390.09 398,-385.54 394.91,-390.07"></polygon>
</g>
<!-- Sow&#45;&gt;Field Bob -->
<g id="edge20" class="edge">
<title>Sow-&gt;Field Bob</title>
<path fill="none" stroke="#bbbbbb" stroke-width="2" d="M441.46,-242.34C463.65,-224.6 496.95,-197.96 520.72,-178.94"></path>
<polygon fill="#bbbbbb" stroke="#bbbbbb" stroke-width="2" points="524.34,-176.04 521.85,-180.92 524.61,-176.47 520.75,-179.56 520.44,-179.17 520.13,-178.78 523.98,-175.69 519.03,-177.41 524.34,-176.04"></polygon>
</g>
</g>
</svg>