<svg width="502pt" height="386pt" viewBox="0.00 0.00 501.65 386.05" xmlns="http://www.w3.org/2000/svg" xmlns:xlink="http://www.w3.org/1999/xlink">
<g id="graph0" class="graph" transform="scale(1 1) rotate(0) translate(4 382.05)">
<polygon fill="white" stroke="none" points="-4,4 -4,-382.05 497.65,-382.05 497.65,4 -4,4"></polygon>
<!-- KorTalos -->
<g id="odv" class="node processes zoomable notenotattached">
<title>KorTalos</title>
<g id="a_odv"><a xlink:href="#Top.KorTalos" xlink:title="KorTalos
">
<path fill="none" stroke="#33bbee" stroke-width="2" d="M293.95,-130.74C293.95,-130.74 247.53,-130.74 247.53,-130.74 241.53,-130.74 235.53,-124.74 235.53,-118.74 235.53,-118.74 235.53,-106.74 235.53,-106.74 235.53,-100.74 241.53,-94.74 247.53,-94.74 247.53,-94.74 293.95,-94.74 293.95,-94.74 299.95,-94.74 305.95,-100.74 305.95,-106.74 305.95,-106.74 305.95,-118.74 305.95,-118.74 305.95,-124.74 299.95,-130.74 293.95,-130.74"></path>
<text text-anchor="middle" x="270.74" y="-116.94" font-family="Arial" font-size="14.00">0.3</text>
<text text-anchor="middle" x="270.74" y="-100.14" font-family="Arial" font-size="14.00">KorTalos</text>
</a>
</g>
<line x1="235.52999877929688" y1="-113.74000549316406" x2="305.95001220703125" y2="-113.74000549316406" stroke-dasharray="3,3" stroke="#33bbee" stroke-width="2px"></line><circle cx="236.52999877929688" cy="-129.74000549316406" r="3" stroke="#ee3377" fill="#ee3377"></circle></g>
<!-- Govern -->
<g id="axg" class="node agents">
<title>Govern</title>
<polygon fill="none" stroke="#009988" stroke-width="2" points="289.63,-208.51 229.32,-208.51 229.32,-172.51 289.63,-172.51 289.63,-208.51"></polygon>
<text text-anchor="middle" x="259.47" y="-186.31" font-family="Arial" font-size="14.00">Govern</text>
</g>
<!-- KorTalos&#45;&gt;Govern -->
<g id="edge1" class="edge">
<title>KorTalos-&gt;Govern</title>
<path fill="none" stroke="#bbbbbb" stroke-width="2" d="M266.97,-138.72C265.78,-146.95 264.46,-156.06 263.27,-164.3"></path>
<polygon fill="#bbbbbb" stroke="#bbbbbb" stroke-width="2" points="267.66,-133.98 269.17,-139.25 268.15,-134.11 267.44,-139 266.95,-138.92 266.45,-138.85 267.16,-133.97 264.72,-138.6 267.66,-133.98"></polygon>
<polygon fill="#bbbbbb" stroke="#bbbbbb" stroke-width="2" points="262.56,-169.17 261.05,-163.9 262.08,-169.04 262.79,-164.15 263.28,-164.23 263.78,-164.3 263.07,-169.18 265.51,-164.55 262.56,-169.17"></polygon>
</g>
<!-- Security -->
<g id="cxn" class="node transforms zoomnotable notenotattached">
<title>Security</title>
<g id="a_cxn"><a xlink:title="Security
">
<path fill="none" stroke="#33bbee" stroke-width="2" d="M375.39,-65.96C375.39,-65.96 334.41,-65.96 334.41,-65.96 328.41,-65.96 322.41,-59.96 322.41,-53.96 322.41,-53.96 322.41,-41.96 322.41,-41.96 322.41,-35.96 328.41,-29.96 334.41,-29.96 334.41,-29.96 375.39,-29.96 375.39,-29.96 381.39,-29.96 387.39,-35.96 387.39,-41.96 387.39,-41.96 387.39,-53.96 387.39,-53.96 387.39,-59.96 381.39,-65.96 375.39,-65.96"></path>
<text text-anchor="middle" x="354.9" y="-52.16" font-family="Arial" font-size="14.00">0.4</text>
<text text-anchor="middle" x="354.9" y="-35.36" font-family="Arial" font-size="14.00">Security</text>
</a>
</g>
<line x1="322.4100036621094" y1="-48.959999084472656" x2="387.3900146484375" y2="-48.959999084472656" stroke-dasharray="3,0" stroke="#33bbee" stroke-width="2px"></line></g>
<!-- Govern&#45;&gt;Security -->
<g id="edge9" class="edge">
<title>Govern-&gt;Security</title>
<path fill="none" stroke="#bbbbbb" stroke-width="2" d="M286.73,-166.79C296.2,-157.66 306.39,-146.72 314.19,-135.54 327.66,-116.24 338.59,-91.77 345.73,-73.61"></path>
<polygon fill="#bbbbbb" stroke="#bbbbbb" stroke-width="2" points="283.34,-170 285.43,-164.93 283.04,-169.59 286.63,-166.2 286.97,-166.56 287.32,-166.93 283.73,-170.32 288.52,-168.2 283.34,-170"></polygon>
<polygon fill="#bbbbbb" stroke="#bbbbbb" stroke-width="2" points="347.49,-69.01 347.8,-74.48 347.94,-69.25 346.17,-73.86 345.7,-73.68 345.23,-73.5 347,-68.89 343.6,-72.87 347.49,-69.01"></polygon>
</g>
<!-- Shelter -->
<g id="r4l" class="node transforms zoomnotable notenotattached">
<title>Shelter</title>
<g id="a_r4l"><a xlink:title="Shelter
">
<path fill="none" stroke="#33bbee" stroke-width="2" d="M241.88,-298.83C241.88,-298.83 207.13,-298.83 207.13,-298.83 201.13,-298.83 195.13,-292.83 195.13,-286.83 195.13,-286.83 195.13,-274.83 195.13,-274.83 195.13,-268.83 201.13,-262.83 207.13,-262.83 207.13,-262.83 241.88,-262.83 241.88,-262.83 247.88,-262.83 253.88,-268.83 253.88,-274.83 253.88,-274.83 253.88,-286.83 253.88,-286.83 253.88,-292.83 247.88,-298.83 241.88,-298.83"></path>
<text text-anchor="middle" x="224.51" y="-285.03" font-family="Arial" font-size="14.00">0.5</text>
<text text-anchor="middle" x="224.51" y="-268.23" font-family="Arial" font-size="14.00">Shelter</text>
</a>
</g>
<line x1="195.1300048828125" y1="-281.8299865722656" x2="253.8800048828125" y2="-281.8299865722656" stroke-dasharray="3,0" stroke="#33bbee" stroke-width="2px"></line></g>
<!-- Govern&#45;&gt;Shelter -->
<g id="edge10" class="edge">
<title>Govern-&gt;Shelter</title>
<path fill="none" stroke="#bbbbbb" stroke-width="2" d="M249.56,-216.11C244.82,-228.36 239.16,-242.99 234.41,-255.24"></path>
<polygon fill="#bbbbbb" stroke="#bbbbbb" stroke-width="2" points="251.35,-211.49 251.64,-216.97 251.79,-211.73 250.01,-216.34 249.54,-216.16 249.08,-215.98 250.86,-211.37 247.44,-215.34 251.35,-211.49"></polygon>
<polygon fill="#bbbbbb" stroke="#bbbbbb" stroke-width="2" points="232.62,-259.87 232.33,-254.39 232.18,-259.63 233.96,-255.02 234.43,-255.2 234.89,-255.38 233.11,-259.99 236.52,-256.01 232.62,-259.87"></polygon>
</g>
<!-- Food -->
<g id="uav" class="node transforms zoomable notenotattached">
<title>Food</title>
<g id="a_uav"><a xlink:href="#Top.Food" xlink:title="Food
">
<path fill="none" stroke="#33bbee" stroke-width="2" d="M172.26,-230.24C172.26,-230.24 142.26,-230.24 142.26,-230.24 136.26,-230.24 130.26,-224.24 130.26,-218.24 130.26,-218.24 130.26,-206.24 130.26,-206.24 130.26,-200.24 136.26,-194.24 142.26,-194.24 142.26,-194.24 172.26,-194.24 172.26,-194.24 178.26,-194.24 184.26,-200.24 184.26,-206.24 184.26,-206.24 184.26,-218.24 184.26,-218.24 184.26,-224.24 178.26,-230.24 172.26,-230.24"></path>
<text text-anchor="middle" x="157.26" y="-216.44" font-family="Arial" font-size="14.00">0.2</text>
<text text-anchor="middle" x="157.26" y="-199.64" font-family="Arial" font-size="14.00">Food</text>
</a>
</g>
<line x1="130.25999450683594" y1="-213.24000549316406" x2="184.25999450683594" y2="-213.24000549316406" stroke-dasharray="3,0" stroke="#33bbee" stroke-width="2px"></line><circle cx="131.25999450683594" cy="-229.24000549316406" r="3" stroke="#ee3377" fill="#ee3377"></circle></g>
<!-- Govern&#45;&gt;Food -->
<g id="edge11" class="edge">
<title>Govern-&gt;Food</title>
<path fill="none" stroke="#bbbbbb" stroke-width="2" d="M221.53,-198.57C211.87,-200.63 201.54,-202.82 192.04,-204.84"></path>
<polygon fill="#bbbbbb" stroke="#bbbbbb" stroke-width="2" points="226.14,-197.59 221.72,-200.83 226.19,-198.1 221.36,-199.12 221.25,-198.63 221.15,-198.14 225.98,-197.12 220.79,-196.43 226.14,-197.59"></polygon>
<polygon fill="#bbbbbb" stroke="#bbbbbb" stroke-width="2" points="187.35,-205.84 191.78,-202.6 187.31,-205.34 192.14,-204.31 192.24,-204.8 192.35,-205.29 187.52,-206.32 192.71,-207 187.35,-205.84"></polygon>
</g>
<!-- Energy -->
<g id="evn" class="node transforms zoomnotable notenotattached">
<title>Energy</title>
<g id="a_evn"><a xlink:title="Energy
">
<path fill="none" stroke="#33bbee" stroke-width="2" d="M341.25,-287.84C341.25,-287.84 306.49,-287.84 306.49,-287.84 300.49,-287.84 294.49,-281.84 294.49,-275.84 294.49,-275.84 294.49,-263.84 294.49,-263.84 294.49,-257.84 300.49,-251.84 306.49,-251.84 306.49,-251.84 341.25,-251.84 341.25,-251.84 347.25,-251.84 353.25,-257.84 353.25,-263.84 353.25,-263.84 353.25,-275.84 353.25,-275.84 353.25,-281.84 347.25,-287.84 341.25,-287.84"></path>
<text text-anchor="middle" x="323.87" y="-274.04" font-family="Arial" font-size="14.00">0.6</text>
<text text-anchor="middle" x="323.87" y="-257.24" font-family="Arial" font-size="14.00">Energy</text>
</a>
</g>
<line x1="294.489990234375" y1="-270.8399963378906" x2="353.25" y2="-270.8399963378906" stroke-dasharray="3,0" stroke="#33bbee" stroke-width="2px"></line></g>
<!-- Govern&#45;&gt;Energy -->
<g id="edge12" class="edge">
<title>Govern-&gt;Energy</title>
<path fill="none" stroke="#bbbbbb" stroke-width="2" d="M279.2,-214.81C287.08,-224.51 296.12,-235.65 304.01,-245.37"></path>
<polygon fill="#bbbbbb" stroke="#bbbbbb" stroke-width="2" points="276.27,-211.2 281.17,-213.66 276.7,-210.93 279.81,-214.77 279.42,-215.08 279.03,-215.4 275.92,-211.56 277.68,-216.5 276.27,-211.2"></polygon>
<polygon fill="#bbbbbb" stroke="#bbbbbb" stroke-width="2" points="306.96,-249.01 302.06,-246.54 306.53,-249.27 303.42,-245.44 303.81,-245.12 304.2,-244.81 307.31,-248.64 305.56,-243.7 306.96,-249.01"></polygon>
</g>
<!-- Water -->
<g id="szk" class="node transforms zoomnotable notenotattached">
<title>Water</title>
<g id="a_szk"><a xlink:title="Water
">
<path fill="none" stroke="#33bbee" stroke-width="2" d="M411.26,-206.5C411.26,-206.5 381.26,-206.5 381.26,-206.5 375.26,-206.5 369.26,-200.5 369.26,-194.5 369.26,-194.5 369.26,-182.5 369.26,-182.5 369.26,-176.5 375.26,-170.5 381.26,-170.5 381.26,-170.5 411.26,-170.5 411.26,-170.5 417.26,-170.5 423.26,-176.5 423.26,-182.5 423.26,-182.5 423.26,-194.5 423.26,-194.5 423.26,-200.5 417.26,-206.5 411.26,-206.5"></path>
<text text-anchor="middle" x="396.26" y="-192.7" font-family="Arial" font-size="14.00">0.7</text>
<text text-anchor="middle" x="396.26" y="-175.9" font-family="Arial" font-size="14.00">Water</text>
</a>
</g>
<line x1="369.260009765625" y1="-189.5" x2="423.260009765625" y2="-189.5" stroke-dasharray="3,0" stroke="#33bbee" stroke-width="2px"></line></g>
<!-- Govern&#45;&gt;Water -->
<g id="edge13" class="edge">
<title>Govern-&gt;Water</title>
<path fill="none" stroke="#bbbbbb" stroke-width="2" d="M297.91,-189.94C317.77,-189.65 341.81,-189.3 361.16,-189.02"></path>
<polygon fill="#bbbbbb" stroke="#bbbbbb" stroke-width="2" points="292.95,-190.02 297.92,-187.69 293.01,-189.52 297.94,-189.44 297.95,-189.94 297.96,-190.44 293.02,-190.52 297.98,-192.19 292.95,-190.02"></polygon>
<polygon fill="#bbbbbb" stroke="#bbbbbb" stroke-width="2" points="366.16,-188.94 361.19,-191.27 366.1,-189.44 361.17,-189.52 361.16,-189.02 361.15,-188.52 366.09,-188.44 361.13,-186.77 366.16,-188.94"></polygon>
</g>
<!-- Medical -->
<g id="vlg" class="node transforms zoomnotable notenotattached">
<title>Medical</title>
<g id="a_vlg"><a xlink:title="Medical
">
<path fill="none" stroke="#33bbee" stroke-width="2" d="M189.14,-121.43C189.14,-121.43 150.5,-121.43 150.5,-121.43 144.5,-121.43 138.5,-115.43 138.5,-109.43 138.5,-109.43 138.5,-97.43 138.5,-97.43 138.5,-91.43 144.5,-85.43 150.5,-85.43 150.5,-85.43 189.14,-85.43 189.14,-85.43 195.14,-85.43 201.14,-91.43 201.14,-97.43 201.14,-97.43 201.14,-109.43 201.14,-109.43 201.14,-115.43 195.14,-121.43 189.14,-121.43"></path>
<text text-anchor="middle" x="169.82" y="-107.63" font-family="Arial" font-size="14.00">0.8</text>
<text text-anchor="middle" x="169.82" y="-90.83" font-family="Arial" font-size="14.00">Medical</text>
</a>
</g>
<line x1="138.5" y1="-104.43000030517578" x2="201.13999938964844" y2="-104.43000030517578" stroke-dasharray="3,0" stroke="#33bbee" stroke-width="2px"></line></g>
<!-- Govern&#45;&gt;Medical -->
<g id="edge14" class="edge">
<title>Govern-&gt;Medical</title>
<path fill="none" stroke="#bbbbbb" stroke-width="2" d="M234.9,-166.64C222.32,-154.42 207.04,-139.58 194.45,-127.35"></path>
<polygon fill="#bbbbbb" stroke="#bbbbbb" stroke-width="2" points="238.27,-169.91 233.12,-168.04 237.88,-170.23 234.34,-166.79 234.69,-166.43 235.03,-166.07 238.58,-169.51 236.25,-164.82 238.27,-169.91"></polygon>
<polygon fill="#bbbbbb" stroke="#bbbbbb" stroke-width="2" points="190.99,-123.98 196.14,-125.85 191.38,-123.67 194.92,-127.11 194.57,-127.47 194.22,-127.82 190.68,-124.38 193,-129.08 190.99,-123.98"></polygon>
</g>
<!-- Farmland -->
<g id="vda" class="node locations">
<title>Farmland</title>
<polygon fill="none" stroke="#cc3311" stroke-width="2" points="0,-167.21 0,-203.21 105.83,-203.21 105.83,-167.21 0,-167.21"></polygon>
<text text-anchor="middle" x="16.15" y="-181.01" font-family="Arial" font-size="14.00">R2</text>
<polyline fill="none" stroke="#cc3311" stroke-width="2" points="32.3,-167.21 32.3,-203.21"></polyline>
<text text-anchor="middle" x="69.06" y="-181.01" font-family="Arial" font-size="14.00">Farmland</text>
</g>
<!-- Public -->
<g id="adb" class="node locations">
<title>Public</title>
<polygon fill="none" stroke="#cc3311" stroke-width="2" points="201.68,-341.55 201.68,-377.55 286.51,-377.55 286.51,-341.55 201.68,-341.55"></polygon>
<text text-anchor="middle" x="217.83" y="-355.35" font-family="Arial" font-size="14.00">R3</text>
<polyline fill="none" stroke="#cc3311" stroke-width="2" points="233.98,-341.55 233.98,-377.55"></polyline>
<text text-anchor="middle" x="260.24" y="-355.35" font-family="Arial" font-size="14.00">Public</text>
</g>
<!-- Generation -->
<g id="y53" class="node locations">
<title>Generation</title>
<polygon fill="none" stroke="#cc3311" stroke-width="2" points="367.41,-304.9 367.41,-340.9 483.38,-340.9 483.38,-304.9 367.41,-304.9"></polygon>
<text text-anchor="middle" x="383.56" y="-318.7" font-family="Arial" font-size="14.00">R4</text>
<polyline fill="none" stroke="#cc3311" stroke-width="2" points="399.71,-304.9 399.71,-340.9"></polyline>
<text text-anchor="middle" x="441.54" y="-318.7" font-family="Arial" font-size="14.00">Generation</text>
</g>
<!-- Stores -->
<g id="ekf" class="node locations">
<title>Stores</title>
<polygon fill="none" stroke="#cc3311" stroke-width="2" points="37.23,-309.54 37.23,-345.54 124.39,-345.54 124.39,-309.54 37.23,-309.54"></polygon>
<text text-anchor="middle" x="53.38" y="-323.34" font-family="Arial" font-size="14.00">R5</text>
<polyline fill="none" stroke="#cc3311" stroke-width="2" points="69.52,-309.54 69.52,-345.54"></polyline>
<text text-anchor="middle" x="96.95" y="-323.34" font-family="Arial" font-size="14.00">Stores</text>
</g>
<!-- Supplies -->
<g id="nvg" class="node locations">
<title>Supplies</title>
<polygon fill="none" stroke="#cc3311" stroke-width="2" points="24.02,-25.43 24.02,-61.43 124.42,-61.43 124.42,-25.43 24.02,-25.43"></polygon>
<text text-anchor="middle" x="40.17" y="-39.23" font-family="Arial" font-size="14.00">R6</text>
<polyline fill="none" stroke="#cc3311" stroke-width="2" points="56.32,-25.43 56.32,-61.43"></polyline>
<text text-anchor="middle" x="90.37" y="-39.23" font-family="Arial" font-size="14.00">Supplies</text>
</g>
<!-- Dams -->
<g id="z41" class="node locations">
<title>Dams</title>
<polygon fill="none" stroke="#cc3311" stroke-width="2" points="410.39,-61.47 410.39,-97.47 493.65,-97.47 493.65,-61.47 410.39,-61.47"></polygon>
<text text-anchor="middle" x="426.54" y="-75.27" font-family="Arial" font-size="14.00">R7</text>
<polyline fill="none" stroke="#cc3311" stroke-width="2" points="442.69,-61.47 442.69,-97.47"></polyline>
<text text-anchor="middle" x="468.17" y="-75.27" font-family="Arial" font-size="14.00">Dams</text>
</g>
<!-- Hospitals -->
<g id="ur5" class="node locations">
<title>Hospitals</title>
<polygon fill="none" stroke="#cc3311" stroke-width="2" points="185.58,-0.5 185.58,-36.5 289.86,-36.5 289.86,-0.5 185.58,-0.5"></polygon>
<text text-anchor="middle" x="201.73" y="-14.3" font-family="Arial" font-size="14.00">R8</text>
<polyline fill="none" stroke="#cc3311" stroke-width="2" points="217.88,-0.5 217.88,-36.5"></polyline>
<text text-anchor="middle" x="253.87" y="-14.3" font-family="Arial" font-size="14.00">Hospitals</text>
</g>
<!-- Shelter&#45;&gt;Public -->
<g id="edge7" class="edge">
<title>Shelter-&gt;Public</title>
<path fill="none" stroke="#bbbbbb" stroke-width="2" d="M230.9,-306.53C233.68,-317.69 236.87,-330.51 239.42,-340.76"></path>
<polygon fill="#bbbbbb" stroke="#bbbbbb" stroke-width="2" points="229.74,-301.85 233.13,-306.16 230.24,-301.79 231.43,-306.58 230.94,-306.7 230.46,-306.82 229.27,-302.03 228.76,-307.24 229.74,-301.85"></polygon>
</g>
<!-- Food&#45;&gt;Farmland -->
<g id="edge5" class="edge">
<title>Food-&gt;Farmland</title>
<path fill="none" stroke="#bbbbbb" stroke-width="2" d="M122.18,-203.15C119.38,-202.43 116.5,-201.68 113.59,-200.93"></path>
<polygon fill="#bbbbbb" stroke="#bbbbbb" stroke-width="2" points="126.94,-204.38 121.53,-205.31 126.75,-204.85 121.97,-203.62 122.1,-203.13 122.22,-202.65 127,-203.89 122.66,-200.95 126.94,-204.38"></polygon>
<polygon fill="#bbbbbb" stroke="#bbbbbb" stroke-width="2" points="109.1,-199.77 114.51,-198.84 109.29,-199.3 114.07,-200.54 113.94,-201.02 113.82,-201.5 109.04,-200.27 113.38,-203.2 109.1,-199.77"></polygon>
</g>
<!-- Food&#45;&gt;Stores -->
<g id="edge6" class="edge">
<title>Food-&gt;Stores</title>
<path fill="none" stroke="#bbbbbb" stroke-width="2" d="M144.8,-231.02C131.86,-250.53 111.55,-281.17 97.29,-302.68"></path>
<polygon fill="#bbbbbb" stroke="#bbbbbb" stroke-width="2" points="94.6,-306.73 95.49,-301.32 94.22,-306.4 96.95,-302.29 97.36,-302.56 97.78,-302.84 95.05,-306.96 99.24,-303.81 94.6,-306.73"></polygon>
</g>
<!-- Energy&#45;&gt;Generation -->
<g id="edge8" class="edge">
<title>Energy-&gt;Generation</title>
<path fill="none" stroke="#bbbbbb" stroke-width="2" d="M360.38,-288.92C369.71,-293.8 379.73,-299.04 389.05,-303.91"></path>
<polygon fill="#bbbbbb" stroke="#bbbbbb" stroke-width="2" points="356.22,-286.74 361.69,-287.07 356.5,-286.33 360.88,-288.62 360.65,-289.06 360.42,-289.5 356.04,-287.22 359.61,-291.05 356.22,-286.74"></polygon>
</g>
<!-- Water&#45;&gt;Dams -->
<g id="edge4" class="edge">
<title>Water-&gt;Dams</title>
<path fill="none" stroke="#bbbbbb" stroke-width="2" d="M409.26,-163.09C419.4,-143.25 433.26,-116.15 442.42,-98.25"></path>
<polygon fill="#bbbbbb" stroke="#bbbbbb" stroke-width="2" points="407.08,-167.34 407.36,-161.86 406.67,-167.06 408.92,-162.66 409.36,-162.89 409.81,-163.12 407.56,-167.51 411.36,-163.91 407.08,-167.34"></polygon>
</g>
<!-- Medical&#45;&gt;Supplies -->
<g id="edge3" class="edge">
<title>Medical-&gt;Supplies</title>
<path fill="none" stroke="#bbbbbb" stroke-width="2" d="M133.37,-80.55C125.86,-75.84 117.96,-70.88 110.46,-66.17"></path>
<polygon fill="#bbbbbb" stroke="#bbbbbb" stroke-width="2" points="137.51,-83.15 132.08,-82.4 137.19,-83.54 133.01,-80.91 133.27,-80.49 133.54,-80.07 137.72,-82.69 134.47,-78.58 137.51,-83.15"></polygon>
<polygon fill="#bbbbbb" stroke="#bbbbbb" stroke-width="2" points="106.34,-63.58 111.77,-64.34 106.66,-63.19 110.84,-65.82 110.57,-66.24 110.31,-66.67 106.12,-64.04 109.38,-68.15 106.34,-63.58"></polygon>
</g>
<!-- Medical&#45;&gt;Hospitals -->
<g id="edge2" class="edge">
<title>Medical-&gt;Hospitals</title>
<path fill="none" stroke="#bbbbbb" stroke-width="2" d="M189.29,-79.08C198.33,-67.77 209.06,-54.34 218.13,-43.01"></path>
<polygon fill="#bbbbbb" stroke="#bbbbbb" stroke-width="2" points="186.41,-82.67 187.78,-77.36 186.06,-82.31 189.14,-78.46 189.54,-78.77 189.93,-79.08 186.84,-82.94 191.29,-80.17 186.41,-82.67"></polygon>
<polygon fill="#bbbbbb" stroke="#bbbbbb" stroke-width="2" points="221.17,-39.2 219.81,-44.51 221.52,-39.56 218.44,-43.42 218.05,-43.1 217.66,-42.79 220.74,-38.94 216.29,-41.7 221.17,-39.2"></polygon>
</g>
</g>
</svg>