<svg width="490pt" height="363pt" viewBox="0.00 0.00 490.06 363.40" xmlns="http://www.w3.org/2000/svg" xmlns:xlink="http://www.w3.org/1999/xlink">
<g id="graph0" class="graph" transform="scale(1 1) rotate(0) translate(4 359.4)">
<polygon fill="white" stroke="none" points="-4,4 -4,-359.4 486.06,-359.4 486.06,4 -4,4"></polygon>
<!-- Farmland -->
<g id="s3x" class="node locations">
<title>Farmland</title>
<polygon fill="none" stroke="#cc3311" stroke-width="2" points="0,-88.27 0,-124.27 105.83,-124.27 105.83,-88.27 0,-88.27"></polygon>
<text text-anchor="middle" x="16.15" y="-102.07" font-family="Arial" font-size="14.00">R2</text>
<polyline fill="none" stroke="#cc3311" stroke-width="2" points="32.3,-88.27 32.3,-124.27"></polyline>
<text text-anchor="middle" x="69.06" y="-102.07" font-family="Arial" font-size="14.00">Farmland</text>
</g>
<!-- Public -->
<g id="s6f" class="node locations">
<title>Public</title>
<polygon fill="none" stroke="#cc3311" stroke-width="2" points="333.55,-54.87 333.55,-90.87 418.38,-90.87 418.38,-54.87 333.55,-54.87"></polygon>
<text text-anchor="middle" x="349.7" y="-68.67" font-family="Arial" font-size="14.00">R3</text>
<polyline fill="none" stroke="#cc3311" stroke-width="2" points="365.85,-54.87 365.85,-90.87"></polyline>
<text text-anchor="middle" x="392.11" y="-68.67" font-family="Arial" font-size="14.00">Public</text>
</g>
<!-- Generation -->
<g id="qza" class="node locations">
<title>Generation</title>
<polygon fill="none" stroke="#cc3311" stroke-width="2" points="127.44,-0.5 127.44,-36.5 243.41,-36.5 243.41,-0.5 127.44,-0.5"></polygon>
<text text-anchor="middle" x="143.59" y="-14.3" font-family="Arial" font-size="14.00">R4</text>
<polyline fill="none" stroke="#cc3311" stroke-width="2" points="159.74,-0.5 159.74,-36.5"></polyline>
<text text-anchor="middle" x="201.57" y="-14.3" font-family="Arial" font-size="14.00">Generation</text>
</g>
<!-- Stores -->
<g id="yyc" class="node locations">
<title>Stores</title>
<polygon fill="none" stroke="#cc3311" stroke-width="2" points="47.5,-221.84 47.5,-257.84 134.66,-257.84 134.66,-221.84 47.5,-221.84"></polygon>
<text text-anchor="middle" x="63.65" y="-235.64" font-family="Arial" font-size="14.00">R5</text>
<polyline fill="none" stroke="#cc3311" stroke-width="2" points="79.8,-221.84 79.8,-257.84"></polyline>
<text text-anchor="middle" x="107.23" y="-235.64" font-family="Arial" font-size="14.00">Stores</text>
</g>
<!-- Supplies -->
<g id="b41" class="node locations">
<title>Supplies</title>
<polygon fill="none" stroke="#cc3311" stroke-width="2" points="294.6,-288.96 294.6,-324.96 395,-324.96 395,-288.96 294.6,-288.96"></polygon>
<text text-anchor="middle" x="310.75" y="-302.76" font-family="Arial" font-size="14.00">R6</text>
<polyline fill="none" stroke="#cc3311" stroke-width="2" points="326.9,-288.96 326.9,-324.96"></polyline>
<text text-anchor="middle" x="360.95" y="-302.76" font-family="Arial" font-size="14.00">Supplies</text>
</g>
<!-- Dams -->
<g id="nkp" class="node locations">
<title>Dams</title>
<polygon fill="none" stroke="#cc3311" stroke-width="2" points="159.77,-318.9 159.77,-354.9 243.02,-354.9 243.02,-318.9 159.77,-318.9"></polygon>
<text text-anchor="middle" x="175.91" y="-332.7" font-family="Arial" font-size="14.00">R7</text>
<polyline fill="none" stroke="#cc3311" stroke-width="2" points="192.06,-318.9 192.06,-354.9"></polyline>
<text text-anchor="middle" x="217.54" y="-332.7" font-family="Arial" font-size="14.00">Dams</text>
</g>
<!-- Hospitals -->
<g id="l9y" class="node locations">
<title>Hospitals</title>
<polygon fill="none" stroke="#cc3311" stroke-width="2" points="377.78,-211.05 377.78,-247.05 482.06,-247.05 482.06,-211.05 377.78,-211.05"></polygon>
<text text-anchor="middle" x="393.93" y="-224.85" font-family="Arial" font-size="14.00">R8</text>
<polyline fill="none" stroke="#cc3311" stroke-width="2" points="410.08,-211.05 410.08,-247.05"></polyline>
<text text-anchor="middle" x="446.07" y="-224.85" font-family="Arial" font-size="14.00">Hospitals</text>
</g>
<!-- Security -->
<g id="hfx" class="node transforms zoomnotable">
<title>Security</title>
<path fill="none" stroke="#33bbee" stroke-width="2" d="M287.62,-106.69C287.62,-106.69 246.64,-106.69 246.64,-106.69 240.64,-106.69 234.64,-100.69 234.64,-94.69 234.64,-94.69 234.64,-82.69 234.64,-82.69 234.64,-76.69 240.64,-70.69 246.64,-70.69 246.64,-70.69 287.62,-70.69 287.62,-70.69 293.62,-70.69 299.62,-76.69 299.62,-82.69 299.62,-82.69 299.62,-94.69 299.62,-94.69 299.62,-100.69 293.62,-106.69 287.62,-106.69"></path>
<text text-anchor="middle" x="267.13" y="-92.89" font-family="Arial" font-size="14.00">0.3</text>
<text text-anchor="middle" x="267.13" y="-76.09" font-family="Arial" font-size="14.00">Security</text>
<line x1="234.63999938964844" y1="-89.69000244140625" x2="299.6199951171875" y2="-89.69000244140625" stroke-dasharray="3,0" stroke="#33bbee" stroke-width="2px"></line></g>
<!-- Shelter -->
<g id="ts5" class="node transforms zoomnotable">
<title>Shelter</title>
<path fill="none" stroke="#33bbee" stroke-width="2" d="M346.21,-153.1C346.21,-153.1 311.45,-153.1 311.45,-153.1 305.45,-153.1 299.45,-147.1 299.45,-141.1 299.45,-141.1 299.45,-129.1 299.45,-129.1 299.45,-123.1 305.45,-117.1 311.45,-117.1 311.45,-117.1 346.21,-117.1 346.21,-117.1 352.21,-117.1 358.21,-123.1 358.21,-129.1 358.21,-129.1 358.21,-141.1 358.21,-141.1 358.21,-147.1 352.21,-153.1 346.21,-153.1"></path>
<text text-anchor="middle" x="328.83" y="-139.3" font-family="Arial" font-size="14.00">0.4</text>
<text text-anchor="middle" x="328.83" y="-122.5" font-family="Arial" font-size="14.00">Shelter</text>
<line x1="299.45001220703125" y1="-136.10000610351562" x2="358.2099914550781" y2="-136.10000610351562" stroke-dasharray="3,0" stroke="#33bbee" stroke-width="2px"></line></g>
<!-- Shelter&#45;&gt;Public -->
<g id="edge6" class="edge">
<title>Shelter-&gt;Public</title>
<path fill="none" stroke="#bbbbbb" stroke-width="2" d="M347.3,-110.72C352.13,-104.34 357.27,-97.56 361.83,-91.53"></path>
<polygon fill="#bbbbbb" stroke="#bbbbbb" stroke-width="2" points="344.44,-114.49 345.67,-109.15 344.08,-114.14 347.06,-110.2 347.46,-110.5 347.86,-110.81 344.88,-114.74 349.25,-111.86 344.44,-114.49"></polygon>
</g>
<!-- Food -->
<g id="vp3" class="node transforms zoomable">
<title>Food</title>
<g id="a_vp3"><a xlink:href="#Top.Food" xlink:title="0.2
Food">
<path fill="none" stroke="#33bbee" stroke-width="2" d="M171.54,-204.71C171.54,-204.71 141.54,-204.71 141.54,-204.71 135.54,-204.71 129.54,-198.71 129.54,-192.71 129.54,-192.71 129.54,-180.71 129.54,-180.71 129.54,-174.71 135.54,-168.71 141.54,-168.71 141.54,-168.71 171.54,-168.71 171.54,-168.71 177.54,-168.71 183.54,-174.71 183.54,-180.71 183.54,-180.71 183.54,-192.71 183.54,-192.71 183.54,-198.71 177.54,-204.71 171.54,-204.71"></path>
<text text-anchor="middle" x="156.54" y="-190.91" font-family="Arial" font-size="14.00">0.2</text>
<text text-anchor="middle" x="156.54" y="-174.11" font-family="Arial" font-size="14.00">Food</text>
</a>
</g>
<line x1="129.5399932861328" y1="-187.7100067138672" x2="183.5399932861328" y2="-187.7100067138672" stroke-dasharray="3,0" stroke="#33bbee" stroke-width="2px"></line><circle cx="130.5399932861328" cy="-203.7100067138672" r="3" stroke="#ee3377" fill="#ee3377"></circle></g>
<!-- Food&#45;&gt;Farmland -->
<g id="edge4" class="edge">
<title>Food-&gt;Farmland</title>
<path fill="none" stroke="#bbbbbb" stroke-width="2" d="M126.61,-163.47C112.84,-152.79 96.55,-140.14 82.79,-129.46"></path>
<polygon fill="#bbbbbb" stroke="#bbbbbb" stroke-width="2" points="130.32,-166.35 124.99,-165.07 129.97,-166.71 126.07,-163.68 126.37,-163.29 126.68,-162.89 130.58,-165.92 127.75,-161.51 130.32,-166.35"></polygon>
<polygon fill="#bbbbbb" stroke="#bbbbbb" stroke-width="2" points="78.98,-126.5 84.31,-127.79 79.34,-126.15 83.24,-129.17 82.93,-129.57 82.63,-129.96 78.73,-126.94 81.55,-131.35 78.98,-126.5"></polygon>
</g>
<!-- Food&#45;&gt;Stores -->
<g id="edge5" class="edge">
<title>Food-&gt;Stores</title>
<path fill="none" stroke="#bbbbbb" stroke-width="2" d="M133.28,-205.59C128.94,-209.11 124.35,-212.84 119.87,-216.48"></path>
<polygon fill="#bbbbbb" stroke="#bbbbbb" stroke-width="2" points="116.16,-219.49 118.63,-214.59 115.9,-219.06 119.73,-215.95 120.04,-216.33 120.36,-216.72 116.53,-219.83 121.46,-218.08 116.16,-219.49"></polygon>
</g>
<!-- Energy -->
<g id="p61" class="node transforms zoomnotable">
<title>Energy</title>
<path fill="none" stroke="#33bbee" stroke-width="2" d="M205.84,-115.39C205.84,-115.39 171.08,-115.39 171.08,-115.39 165.08,-115.39 159.08,-109.39 159.08,-103.39 159.08,-103.39 159.08,-91.39 159.08,-91.39 159.08,-85.39 165.08,-79.39 171.08,-79.39 171.08,-79.39 205.84,-79.39 205.84,-79.39 211.84,-79.39 217.84,-85.39 217.84,-91.39 217.84,-91.39 217.84,-103.39 217.84,-103.39 217.84,-109.39 211.84,-115.39 205.84,-115.39"></path>
<text text-anchor="middle" x="188.46" y="-101.59" font-family="Arial" font-size="14.00">0.5</text>
<text text-anchor="middle" x="188.46" y="-84.79" font-family="Arial" font-size="14.00">Energy</text>
<line x1="159.0800018310547" y1="-98.38999938964844" x2="217.83999633789062" y2="-98.38999938964844" stroke-dasharray="3,0" stroke="#33bbee" stroke-width="2px"></line></g>
<!-- Energy&#45;&gt;Generation -->
<g id="edge7" class="edge">
<title>Energy-&gt;Generation</title>
<path fill="none" stroke="#bbbbbb" stroke-width="2" d="M187.46,-71.31C187.03,-60.21 186.54,-47.5 186.15,-37.34"></path>
<polygon fill="#bbbbbb" stroke="#bbbbbb" stroke-width="2" points="187.65,-76.26 185.21,-71.35 187.15,-76.22 186.96,-71.28 187.46,-71.26 187.96,-71.24 188.15,-76.18 189.7,-71.18 187.65,-76.26"></polygon>
</g>
<!-- Water -->
<g id="azi" class="node transforms zoomnotable">
<title>Water</title>
<path fill="none" stroke="#33bbee" stroke-width="2" d="M236.72,-275.55C236.72,-275.55 206.72,-275.55 206.72,-275.55 200.72,-275.55 194.72,-269.55 194.72,-263.55 194.72,-263.55 194.72,-251.55 194.72,-251.55 194.72,-245.55 200.72,-239.55 206.72,-239.55 206.72,-239.55 236.72,-239.55 236.72,-239.55 242.72,-239.55 248.72,-245.55 248.72,-251.55 248.72,-251.55 248.72,-263.55 248.72,-263.55 248.72,-269.55 242.72,-275.55 236.72,-275.55"></path>
<text text-anchor="middle" x="221.72" y="-261.75" font-family="Arial" font-size="14.00">0.6</text>
<text text-anchor="middle" x="221.72" y="-244.95" font-family="Arial" font-size="14.00">Water</text>
<line x1="194.72000122070312" y1="-258.54998779296875" x2="248.72000122070312" y2="-258.54998779296875" stroke-dasharray="3,0" stroke="#33bbee" stroke-width="2px"></line></g>
<!-- Water&#45;&gt;Dams -->
<g id="edge3" class="edge">
<title>Water-&gt;Dams</title>
<path fill="none" stroke="#bbbbbb" stroke-width="2" d="M215.08,-283.46C212.2,-294.7 208.89,-307.63 206.25,-317.96"></path>
<polygon fill="#bbbbbb" stroke="#bbbbbb" stroke-width="2" points="216.3,-278.72 217.24,-284.12 216.76,-278.9 215.54,-283.68 215.06,-283.56 214.57,-283.44 215.8,-278.65 212.88,-283 216.3,-278.72"></polygon>
</g>
<!-- Medical -->
<g id="atf" class="node transforms zoomnotable">
<title>Medical</title>
<path fill="none" stroke="#33bbee" stroke-width="2" d="M332.53,-247.03C332.53,-247.03 293.89,-247.03 293.89,-247.03 287.89,-247.03 281.89,-241.03 281.89,-235.03 281.89,-235.03 281.89,-223.03 281.89,-223.03 281.89,-217.03 287.89,-211.03 293.89,-211.03 293.89,-211.03 332.53,-211.03 332.53,-211.03 338.53,-211.03 344.53,-217.03 344.53,-223.03 344.53,-223.03 344.53,-235.03 344.53,-235.03 344.53,-241.03 338.53,-247.03 332.53,-247.03"></path>
<text text-anchor="middle" x="313.21" y="-233.23" font-family="Arial" font-size="14.00">0.7</text>
<text text-anchor="middle" x="313.21" y="-216.43" font-family="Arial" font-size="14.00">Medical</text>
<line x1="281.8900146484375" y1="-230.02999877929688" x2="344.5299987792969" y2="-230.02999877929688" stroke-dasharray="3,0" stroke="#33bbee" stroke-width="2px"></line></g>
<!-- Medical&#45;&gt;Supplies -->
<g id="edge2" class="edge">
<title>Medical-&gt;Supplies</title>
<path fill="none" stroke="#bbbbbb" stroke-width="2" d="M323.64,-254.76C327.08,-263.23 330.9,-272.65 334.33,-281.13"></path>
<polygon fill="#bbbbbb" stroke="#bbbbbb" stroke-width="2" points="321.77,-250.15 325.74,-253.94 322.26,-250.02 324.12,-254.6 323.65,-254.79 323.19,-254.97 321.33,-250.4 321.57,-255.63 321.77,-250.15"></polygon>
<polygon fill="#bbbbbb" stroke="#bbbbbb" stroke-width="2" points="336.2,-285.74 332.24,-281.95 335.71,-285.87 333.86,-281.29 334.32,-281.1 334.78,-280.92 336.64,-285.49 336.41,-280.26 336.2,-285.74"></polygon>
</g>
<!-- Medical&#45;&gt;Hospitals -->
<g id="edge1" class="edge">
<title>Medical-&gt;Hospitals</title>
<path fill="none" stroke="#bbbbbb" stroke-width="2" d="M352.52,-229.04C358.1,-229.04 363.93,-229.04 369.79,-229.04"></path>
<polygon fill="#bbbbbb" stroke="#bbbbbb" stroke-width="2" points="347.85,-229.04 352.85,-226.79 347.91,-228.54 352.85,-228.54 352.85,-229.04 352.85,-229.54 347.91,-229.54 352.85,-231.29 347.85,-229.04"></polygon>
<polygon fill="#bbbbbb" stroke="#bbbbbb" stroke-width="2" points="374.77,-229.04 369.77,-231.29 374.71,-229.54 369.77,-229.54 369.77,-229.04 369.77,-228.54 374.71,-228.54 369.77,-226.79 374.77,-229.04"></polygon>
</g>
<!-- Govern -->
<g id="bbu" class="node agents">
<title>Govern</title>
<polygon fill="none" stroke="#009988" stroke-width="2" points="272.81,-196.89 212.5,-196.89 212.5,-160.89 272.81,-160.89 272.81,-196.89"></polygon>
<text text-anchor="middle" x="242.65" y="-174.69" font-family="Arial" font-size="14.00">Govern</text>
</g>
<!-- Govern&#45;&gt;Security -->
<g id="edge8" class="edge">
<title>Govern-&gt;Security</title>
<path fill="none" stroke="#bbbbbb" stroke-width="2" d="M249.58,-153.38C252.87,-141.23 256.81,-126.73 260.12,-114.54"></path>
<polygon fill="#bbbbbb" stroke="#bbbbbb" stroke-width="2" points="248.36,-157.85 247.5,-152.44 247.9,-157.66 249.19,-152.9 249.67,-153.03 250.15,-153.16 248.86,-157.92 251.84,-153.62 248.36,-157.85"></polygon>
<polygon fill="#bbbbbb" stroke="#bbbbbb" stroke-width="2" points="261.34,-110.02 262.2,-115.43 261.81,-110.21 260.52,-114.97 260.03,-114.84 259.55,-114.71 260.84,-109.95 257.86,-114.25 261.34,-110.02"></polygon>
</g>
<!-- Govern&#45;&gt;Shelter -->
<g id="edge9" class="edge">
<title>Govern-&gt;Shelter</title>
<path fill="none" stroke="#bbbbbb" stroke-width="2" d="M280.32,-159.75C284.25,-157.76 288.23,-155.73 292.14,-153.75"></path>
<polygon fill="#bbbbbb" stroke="#bbbbbb" stroke-width="2" points="275.94,-161.98 279.37,-157.71 275.77,-161.51 280.17,-159.27 280.39,-159.72 280.62,-160.16 276.22,-162.4 281.41,-161.72 275.94,-161.98"></polygon>
<polygon fill="#bbbbbb" stroke="#bbbbbb" stroke-width="2" points="296.45,-151.55 293.02,-155.82 296.62,-152.03 292.22,-154.26 292,-153.82 291.77,-153.37 296.17,-151.14 290.98,-151.81 296.45,-151.55"></polygon>
</g>
<!-- Govern&#45;&gt;Food -->
<g id="edge10" class="edge">
<title>Govern-&gt;Food</title>
<path fill="none" stroke="#bbbbbb" stroke-width="2" d="M204.38,-182.37C200.18,-182.75 195.93,-183.13 191.78,-183.51"></path>
<polygon fill="#bbbbbb" stroke="#bbbbbb" stroke-width="2" points="209.14,-181.94 204.36,-184.63 209.12,-182.44 204.2,-182.89 204.16,-182.39 204.11,-181.89 209.03,-181.44 203.96,-180.15 209.14,-181.94"></polygon>
<polygon fill="#bbbbbb" stroke="#bbbbbb" stroke-width="2" points="186.87,-183.96 191.64,-181.26 186.89,-183.45 191.8,-183.01 191.85,-183.5 191.89,-184 186.98,-184.45 192.05,-185.74 186.87,-183.96"></polygon>
</g>
<!-- Govern&#45;&gt;Energy -->
<g id="edge11" class="edge">
<title>Govern-&gt;Energy</title>
<path fill="none" stroke="#bbbbbb" stroke-width="2" d="M226.01,-153.87C219.33,-143.81 211.64,-132.25 204.97,-122.21"></path>
<polygon fill="#bbbbbb" stroke="#bbbbbb" stroke-width="2" points="228.73,-157.96 224.09,-155.04 228.28,-158.19 225.55,-154.08 225.97,-153.8 226.38,-153.52 229.12,-157.63 227.84,-152.55 228.73,-157.96"></polygon>
<polygon fill="#bbbbbb" stroke="#bbbbbb" stroke-width="2" points="202.31,-118.22 206.95,-121.14 202.76,-118 205.5,-122.11 205.08,-122.38 204.66,-122.66 201.93,-118.55 203.21,-123.63 202.31,-118.22"></polygon>
</g>
<!-- Govern&#45;&gt;Water -->
<g id="edge12" class="edge">
<title>Govern-&gt;Water</title>
<path fill="none" stroke="#bbbbbb" stroke-width="2" d="M235.82,-204.57C233.5,-213.28 230.91,-223.01 228.59,-231.73"></path>
<polygon fill="#bbbbbb" stroke="#bbbbbb" stroke-width="2" points="237.06,-199.89 237.95,-205.3 237.53,-200.08 236.26,-204.85 235.78,-204.72 235.3,-204.59 236.57,-199.82 233.6,-204.14 237.06,-199.89"></polygon>
<polygon fill="#bbbbbb" stroke="#bbbbbb" stroke-width="2" points="227.34,-236.42 226.45,-231.01 226.88,-236.23 228.15,-231.46 228.63,-231.58 229.11,-231.71 227.84,-236.48 230.8,-232.16 227.34,-236.42"></polygon>
</g>
<!-- Govern&#45;&gt;Medical -->
<g id="edge13" class="edge">
<title>Govern-&gt;Medical</title>
<path fill="none" stroke="#bbbbbb" stroke-width="2" d="M275.21,-202.03C276.98,-203.29 278.76,-204.55 280.53,-205.81"></path>
<polygon fill="#bbbbbb" stroke="#bbbbbb" stroke-width="2" points="271.31,-199.26 276.69,-200.32 271.66,-198.89 275.68,-201.75 275.39,-202.16 275.1,-202.56 271.08,-199.7 274.09,-203.99 271.31,-199.26"></polygon>
<polygon fill="#bbbbbb" stroke="#bbbbbb" stroke-width="2" points="284.51,-208.64 279.13,-207.58 284.17,-209.01 280.15,-206.15 280.44,-205.74 280.73,-205.33 284.75,-208.19 281.74,-203.91 284.51,-208.64"></polygon>
</g>
</g>
</svg>